<svg version="1.1" id="Layer_1" xmlns="http://www.w3.org/2000/svg" xmlns:xlink="http://www.w3.org/1999/xlink" x="0px" y="0px"
	 width="100%" viewBox="0 0 500 500" enable-background="new 0 0 500 500" xml:space="preserve">
<path fill="#000000" opacity="1.000000" stroke="none" 
	d="
M501.000000,127.000000 
	C501.000000,250.499969 500.980164,373.499969 501.094330,496.499817 
	C501.097809,500.249207 500.249634,501.096375 496.500031,501.093903 
	C332.833466,500.985046 169.166824,500.985077 5.500270,501.093842 
	C1.751390,501.096344 0.903600,500.250061 0.906095,496.500153 
	C1.014956,332.833588 1.014938,169.166946 0.906194,5.500389 
	C0.903703,1.751796 1.749523,0.903578 5.499734,0.906073 
	C169.166275,1.014962 332.832916,1.014931 496.499481,0.906217 
	C500.247772,0.903727 501.112549,1.747042 501.097931,5.499934 
	C500.940735,45.832802 501.000000,86.166519 501.000000,127.000000 
z"/>
<path fill="#FAD81A" opacity="1.000000" stroke="none" 
	d="
M58.528175,282.324402 
	C58.103786,281.547699 58.043644,281.100098 57.904716,280.321838 
	C57.116802,270.380463 57.591541,260.756195 57.537827,251.139008 
	C57.462715,237.689896 57.448975,224.239594 57.716381,210.318176 
	C59.794136,208.100983 62.202236,208.277267 64.506691,208.275864 
	C136.455902,208.232346 208.405121,208.235016 280.354340,208.262695 
	C282.020416,208.263336 283.687378,208.313232 285.749695,208.953293 
	C288.462219,210.851791 287.241821,212.871964 286.276917,214.436050 
	C274.459503,233.591721 270.657104,255.223541 266.798065,276.848572 
	C265.361084,284.901154 264.597351,285.557831 256.420044,285.572205 
	C239.638184,285.601654 222.856247,285.587891 206.074356,285.575684 
	C203.749741,285.574005 201.415314,285.625183 198.718948,284.741821 
	C194.675522,282.603821 190.760956,283.512512 187.006302,283.553284 
	C146.407455,283.994263 105.808098,283.603607 65.209373,283.713013 
	C63.056759,283.718842 60.861187,283.818085 58.528175,282.324402 
z"/>
<path fill="#F7E730" opacity="1.000000" stroke="none" 
	d="
M443.481567,78.827751 
	C443.895538,79.581528 443.942474,79.994408 443.915771,80.712479 
	C443.036438,93.947235 443.707886,106.890213 443.491730,119.825195 
	C443.444550,122.647469 443.549438,125.471115 443.258789,128.748047 
	C440.475739,131.283737 437.366119,130.695587 434.427826,130.700607 
	C405.780365,130.749603 377.132751,130.744293 348.485260,130.713348 
	C343.986572,130.708496 339.497528,130.899185 334.540955,130.954254 
	C333.485962,130.683884 332.988525,130.356644 332.423340,129.484497 
	C332.126648,124.727692 334.973297,121.165398 335.603210,116.608734 
	C335.742859,115.990265 335.803955,115.745972 335.972351,115.143677 
	C337.224274,112.085136 337.708679,109.253365 337.808960,105.976875 
	C337.924927,105.386948 337.991028,105.155487 338.217285,104.602272 
	C338.532623,104.100082 338.687805,103.919632 339.143738,103.554146 
	C342.997498,101.542587 344.245453,98.543190 343.300842,94.821014 
	C342.582001,91.988342 340.306030,91.189056 337.219604,91.620659 
	C334.368439,91.801094 331.697632,90.398758 329.182556,92.684479 
	C327.265167,95.640411 327.102814,98.540703 327.865021,101.943817 
	C327.944336,102.598038 327.956970,102.868713 327.919617,103.556129 
	C327.556549,105.182426 326.861420,106.097481 325.321899,106.866714 
	C302.579498,106.427567 280.275574,106.735977 257.974304,106.750595 
	C230.841583,106.768379 203.707092,106.422600 176.133911,106.849213 
	C172.381271,104.020782 173.821411,100.213043 173.296295,96.467705 
	C172.455536,91.749313 169.040955,91.426399 165.282684,91.025208 
	C158.649414,89.051590 158.834763,94.553223 156.773407,98.117340 
	C154.003540,102.290062 150.422623,103.722061 145.897278,103.716377 
	C118.618515,103.682091 91.339607,103.714516 64.060768,103.677704 
	C62.232273,103.675240 60.391640,103.651299 58.309113,102.510880 
	C57.043354,95.126251 57.697544,88.013405 57.701118,80.452370 
	C57.900246,79.813560 57.949745,79.637047 58.080341,79.197754 
	C59.418465,77.618896 61.080246,77.443810 62.753361,77.324936 
	C64.082428,77.230507 65.415573,77.243233 66.747444,77.243187 
	C189.447906,77.239067 312.148346,77.236771 434.848816,77.260780 
	C437.644318,77.261330 440.544312,76.843132 443.481567,78.827751 
z"/>
<path fill="#FCCD0A" opacity="1.000000" stroke="none" 
	d="
M77.486618,396.683289 
	C65.366188,395.853180 58.686256,385.807587 57.907341,378.398987 
	C57.135822,367.237518 57.636158,356.459930 57.759655,345.228821 
	C59.902634,343.091675 62.305656,343.275879 64.612122,343.274353 
	C124.745918,343.234375 184.879715,343.236786 245.013519,343.264923 
	C247.176514,343.265930 249.358398,343.248810 251.751068,344.549927 
	C253.291458,346.218140 253.513596,347.891693 253.221191,349.541870 
	C250.501633,364.890137 248.461945,380.365723 244.368530,395.861847 
	C243.755768,396.293610 243.453644,396.379791 242.675110,396.476715 
	C187.450668,396.523407 132.702576,396.433777 77.486618,396.683289 
z"/>
<path fill="#FAD112" opacity="1.000000" stroke="none" 
	d="
M252.585815,346.094421 
	C250.426849,344.183441 248.088181,345.038727 246.036072,345.037231 
	C183.719467,344.992371 121.402832,345.001587 58.628220,345.004822 
	C57.079197,343.894745 57.532223,342.489960 57.531898,341.215363 
	C57.527390,323.452484 57.458488,305.689514 57.698818,287.455505 
	C57.902626,285.595367 57.958405,284.206421 58.089058,282.406403 
	C103.181763,281.996887 148.199600,281.985870 193.217361,282.044617 
	C195.073898,282.047028 197.245361,281.123047 198.881622,283.493683 
	C197.690628,285.698090 195.662155,286.087891 193.698944,286.259003 
	C183.282455,287.166809 172.889023,288.289856 162.066162,289.430298 
	C158.550797,289.164246 155.646439,290.625092 152.157928,290.402832 
	C151.221939,290.465546 150.692459,290.510101 149.780930,290.610718 
	C148.923508,290.756348 148.447525,290.841461 147.724091,290.960754 
	C161.472839,293.120270 175.471283,295.214539 189.475815,297.267914 
	C191.285034,297.533203 193.148331,297.644348 194.765366,298.604492 
	C197.839752,300.430023 199.026474,303.358459 198.549973,306.685059 
	C198.109955,309.756744 195.325775,310.287903 192.794128,310.419037 
	C184.602036,310.843353 176.459030,312.261780 168.211060,311.565460 
	C167.550278,311.652344 168.630524,312.321625 168.311142,311.736450 
	C168.209274,311.549835 168.333710,311.493622 168.684937,311.496216 
	C177.358047,311.560455 185.851654,313.212158 194.397736,314.398956 
	C196.051559,314.628662 197.716217,314.868805 199.143600,315.811920 
	C201.449188,317.335297 202.495163,319.495514 201.967209,322.233398 
	C201.443512,324.949219 199.204514,325.314270 196.992172,325.471039 
	C185.052261,326.317078 173.095245,326.910614 161.143433,327.520935 
	C144.381149,328.376923 127.619835,329.286407 110.847862,329.956451 
	C107.186729,330.102692 103.536514,330.012482 99.520996,329.489624 
	C96.711411,330.099792 94.291252,329.953491 92.545387,329.488464 
	C93.854675,329.492432 95.794701,330.415619 98.173050,329.621185 
	C100.929230,329.251801 103.242691,330.206360 106.054092,330.001038 
	C107.938988,329.996368 109.402229,330.017731 111.327370,329.921570 
	C118.601173,329.116364 125.395180,330.054443 132.182907,330.061523 
	C145.498413,330.075439 158.784729,330.766937 172.059387,331.391205 
	C196.669632,332.548615 221.279297,332.144623 245.890732,332.292236 
	C255.858871,332.352020 258.288635,337.014038 252.585815,346.094421 
z"/>
<path fill="#FF9A02" opacity="1.000000" stroke="none" 
	d="
M235.332001,491.680115 
	C224.785828,490.378754 214.627411,489.404480 204.562057,487.210205 
	C190.339630,484.109741 176.827896,479.230804 163.707230,473.219757 
	C143.146088,463.799988 124.234428,451.758942 107.176811,436.794006 
	C98.957619,429.583130 91.042870,422.143097 84.131424,413.658295 
	C82.605461,411.784943 81.109543,409.617981 83.231789,407.726990 
	C85.187950,405.983856 87.906845,406.720215 90.079536,408.020264 
	C97.306480,412.344727 104.336411,417.015472 111.688789,421.110107 
	C135.348587,434.286560 159.270142,447.000366 185.713058,453.802490 
	C199.633728,457.383392 213.780258,460.085815 228.058441,461.887024 
	C231.711365,462.347839 235.466736,461.996643 239.610321,462.091003 
	C245.078781,462.893127 250.136871,462.368652 255.576324,462.313202 
	C288.383942,461.032593 319.342896,453.146698 349.490631,441.730682 
	C357.964050,438.522064 366.175446,434.607391 374.436829,430.861664 
	C376.956482,429.719238 379.300140,429.211334 381.038300,431.662994 
	C382.675873,433.972748 382.423676,436.357422 380.741058,438.901306 
	C376.181915,445.794037 369.446594,450.243378 363.019135,454.958893 
	C339.089478,472.514954 312.053497,482.963318 283.171387,488.834808 
	C276.626190,490.165375 269.852417,490.499786 263.160400,490.906403 
	C260.992645,491.038116 259.042053,491.825867 256.523285,491.901306 
	C249.330658,491.088593 242.535660,491.640015 235.332001,491.680115 
z"/>
<path fill="#FCCD09" opacity="1.000000" stroke="none" 
	d="
M443.594849,361.574463 
	C443.828644,368.684692 444.683472,375.377350 443.044586,382.031067 
	C441.249817,389.317688 433.552002,395.719696 425.413574,396.085205 
	C423.230347,396.784027 421.387451,396.472198 419.577942,396.473328 
	C385.553802,396.494476 351.529663,396.488922 317.030884,396.488037 
	C316.244476,396.475220 315.932709,396.463196 315.198608,396.259583 
	C313.377014,394.326965 313.578400,392.311829 313.887848,390.329529 
	C315.533020,379.790131 317.504730,369.308105 319.497345,358.830200 
	C319.813995,357.165314 320.358459,355.605804 322.167267,354.265198 
	C324.981384,353.125427 327.500031,353.289703 329.989502,353.288483 
	C364.132660,353.271698 398.275848,353.275421 432.419006,353.280304 
	C433.085236,353.280396 433.751617,353.279205 434.417542,353.296600 
	C441.382660,353.478577 442.302124,354.287231 443.594849,361.574463 
z"/>
<path fill="#FBD00F" opacity="1.000000" stroke="none" 
	d="
M443.907532,361.535858 
	C443.304474,361.651978 442.309631,361.298767 442.313873,360.958099 
	C442.390900,354.834808 438.432098,354.925201 433.900757,354.938629 
	C396.921814,355.048401 359.942352,355.001526 322.496277,355.004211 
	C320.313721,353.373077 320.740143,351.345215 321.078613,349.390167 
	C321.646149,346.112183 322.208984,342.830414 322.872437,339.571777 
	C324.035675,333.858582 325.482330,332.608368 331.286621,332.493317 
	C338.771515,332.345001 346.259857,332.490204 353.746338,332.436096 
	C362.523071,332.372650 368.125427,328.570801 371.312378,320.381897 
	C373.799469,313.991455 375.601288,307.435516 375.481445,300.478180 
	C375.450043,298.655487 375.488312,296.797028 377.068176,295.016968 
	C378.101318,295.073853 378.782928,295.493805 378.844482,296.130920 
	C379.441040,302.306854 383.704834,302.417053 388.475525,302.376129 
	C403.866455,302.244080 419.259247,302.314697 434.651337,302.337891 
	C437.123352,302.341644 439.628632,302.137085 442.417175,303.304810 
	C443.640808,304.279907 443.440460,305.267273 443.488220,306.663635 
	C443.518036,317.785858 443.429871,328.436554 443.684296,339.531677 
	C443.883423,347.008392 443.932068,354.040405 443.907532,361.535858 
z"/>
<path fill="#F8F0AB" opacity="1.000000" stroke="none" 
	d="
M443.926208,78.709091 
	C442.525085,79.051582 441.201599,78.831924 439.878082,78.832031 
	C312.944611,78.842239 186.011108,78.869164 58.619530,78.915009 
	C58.107891,77.243591 58.054352,75.552185 58.081631,73.443573 
	C59.876675,71.268745 62.112572,71.589279 64.224197,71.579285 
	C75.114899,71.527725 86.005844,71.573639 97.382065,71.545975 
	C106.866478,71.589363 115.861397,71.039406 125.337006,71.415741 
	C131.509705,71.262939 137.208847,71.269928 143.377808,71.435745 
	C148.231003,71.333931 152.615341,71.248558 157.468002,71.455627 
	C162.306900,71.428253 166.677948,71.184448 171.519440,71.468079 
	C176.695557,71.512070 181.401794,71.110321 186.584656,71.472839 
	C192.793106,71.438148 198.527649,71.070122 204.748260,71.486542 
	C234.381622,71.122551 263.530914,71.073235 293.164429,71.528214 
	C299.068237,71.091560 304.487152,71.341713 310.380127,71.524643 
	C315.567566,71.163261 320.280701,71.313736 325.463898,71.513474 
	C330.632935,71.170380 335.331360,71.319199 340.500854,71.512367 
	C345.386627,71.197868 349.801086,71.264099 354.692139,71.495880 
	C366.062592,71.164680 376.956268,71.163589 388.321289,71.496704 
	C403.745178,71.579697 418.697784,71.571716 433.650269,71.544945 
	C435.627869,71.541405 437.643066,71.858688 439.951172,70.942924 
	C441.013641,70.293488 441.670227,69.796188 442.670166,69.086212 
	C444.919861,71.847069 443.663879,75.131615 443.926208,78.709091 
z"/>
<path fill="#FF9A03" opacity="1.000000" stroke="none" 
	d="
M375.597565,416.666412 
	C368.124878,417.755981 361.040985,419.020203 353.840149,418.952820 
	C352.586334,418.941071 350.678192,420.027954 350.081024,417.868805 
	C349.439026,415.547516 350.888855,414.025452 352.689911,413.077057 
	C359.858490,409.302460 367.393768,406.456482 375.390686,405.049683 
	C377.932129,404.602570 380.399811,403.393768 383.523438,403.943054 
	C387.994843,403.070404 392.075928,403.683258 396.579102,403.715759 
	C399.677277,404.087402 402.405273,403.979126 404.974762,404.565552 
	C415.598572,406.990143 418.073975,411.015106 415.948853,421.950928 
	C412.997040,437.141052 407.549744,451.212006 397.364014,463.138672 
	C396.825592,463.769135 396.284760,464.478119 395.588593,464.878632 
	C393.308746,466.190552 391.256989,469.516449 388.360809,467.533478 
	C385.085571,465.291016 388.115265,462.514099 389.026215,460.192932 
	C392.993744,450.083221 396.504883,439.838928 398.892883,429.234528 
	C400.364441,422.699646 397.676758,419.023224 390.850006,417.970093 
	C389.746826,417.799896 388.690735,417.324249 387.211548,416.900238 
	C383.208527,416.150024 379.577484,416.614807 375.597565,416.666412 
z"/>
<path fill="#FBCC0F" opacity="1.000000" stroke="none" 
	d="
M390.910980,14.814382 
	C399.535614,16.829287 407.382812,20.280239 415.523407,23.955589 
	C416.639038,24.649988 416.454865,25.455486 416.391663,26.569653 
	C413.436615,30.063175 409.252197,30.293846 405.606049,31.666384 
	C402.568970,32.809620 399.802460,34.077744 398.194031,37.540695 
	C397.018860,41.569248 397.038910,45.459343 395.726807,49.479317 
	C392.340973,52.297268 390.220123,49.621677 388.159790,48.007877 
	C378.183075,40.193386 367.700531,33.171982 356.623627,27.013186 
	C351.816895,24.340630 346.824219,22.078209 341.880951,19.694338 
	C339.434357,18.514473 336.514648,16.967836 340.120422,13.522713 
	C356.775024,13.557963 372.998016,13.429642 389.653259,13.775307 
	C390.085876,13.981179 390.035034,14.016230 390.037964,13.985510 
	C390.216461,14.238061 390.439178,14.477495 390.910980,14.814382 
z"/>
<path fill="#FCCC0E" opacity="1.000000" stroke="none" 
	d="
M85.776016,24.210100 
	C93.630615,19.695566 102.292488,17.954800 110.423363,14.017158 
	C118.861290,12.876930 126.970802,13.771446 135.057465,13.532567 
	C139.200012,13.410195 143.349197,13.510889 147.924789,13.508406 
	C153.077133,14.844030 150.541397,17.131416 148.786850,18.726013 
	C146.442001,20.857101 143.303802,21.840332 140.531967,23.361351 
	C130.727188,28.741594 121.399933,34.852188 112.373100,41.441151 
	C110.653030,42.696678 108.999832,44.287106 106.197037,43.486252 
	C104.536781,41.952965 104.832428,40.038387 103.964523,38.155499 
	C102.033905,34.391056 99.177254,32.512581 95.523315,31.362669 
	C92.273666,30.339991 88.764450,29.804020 85.832550,27.148014 
	C85.489227,26.068972 85.504494,25.307714 85.776016,24.210100 
z"/>
<path fill="#F7E62E" opacity="1.000000" stroke="none" 
	d="
M104.723183,37.156399 
	C106.648277,38.498474 105.768013,40.451401 106.023590,42.592945 
	C107.748291,44.889992 107.679893,47.254333 107.672623,49.563076 
	C107.655434,55.019272 107.873802,60.477760 107.526215,66.418442 
	C107.030632,72.488098 107.030632,72.488098 98.397522,72.489090 
	C84.949203,72.450661 71.988487,72.565163 58.597145,72.206268 
	C56.907719,68.889656 59.890354,68.314331 61.342453,67.383263 
	C68.825661,62.585121 76.123688,57.536625 83.562370,52.095802 
	C84.160370,51.775730 84.425232,51.563911 84.829987,51.130852 
	C84.985466,50.929096 84.994484,50.997704 84.959900,50.998505 
	C85.554382,50.522507 85.493729,49.777855 85.849350,48.827324 
	C92.561150,45.438824 97.930061,40.465080 104.723183,37.156399 
z"/>
<path fill="#F7E62E" opacity="1.000000" stroke="none" 
	d="
M394.816223,50.449638 
	C395.479889,45.873901 395.934998,41.744324 396.661530,37.332283 
	C403.557648,40.139942 409.114471,44.908100 415.539673,48.947655 
	C416.097321,49.525494 416.340973,49.912739 416.686157,50.639793 
	C419.452515,54.776646 424.148560,55.841850 427.691284,59.017227 
	C428.484192,59.496384 429.058502,59.499260 429.818207,59.806698 
	C430.055511,59.949532 430.006866,59.997055 430.011932,59.963436 
	C430.261688,60.261604 430.547760,60.552036 431.156586,60.932617 
	C431.431641,61.070446 431.490784,61.015987 431.485535,61.055840 
	C431.894440,61.150326 432.258636,61.317860 432.821167,61.772118 
	C433.062469,61.961826 433.003235,61.994965 433.016602,61.963768 
	C433.209045,62.212990 433.424286,62.462101 433.873718,62.828636 
	C434.071655,62.977364 434.005981,62.994183 434.005249,62.960289 
	C434.399017,63.431122 434.995636,63.500904 435.807434,63.800797 
	C436.058380,63.953953 436.003906,63.997219 436.016357,63.964764 
	C436.208496,64.212486 436.424072,64.461601 436.873505,64.828491 
	C437.071503,64.977341 437.005859,64.994133 437.005371,64.960258 
	C437.399109,65.431282 437.995667,65.500900 438.807312,65.800629 
	C439.058228,65.953705 439.003937,65.997299 439.016418,65.964806 
	C439.208710,66.212761 439.424500,66.462105 439.874573,66.829185 
	C440.072876,66.978020 440.006195,66.993629 440.005157,66.959404 
	C440.398773,67.431236 440.996674,67.500824 441.809143,67.802597 
	C442.060242,67.956360 442.004120,67.996170 442.015930,67.963867 
	C442.214294,68.209091 442.427979,68.463875 442.874023,68.838249 
	C443.079224,68.980583 443.009430,68.961578 443.018066,68.926460 
	C443.032654,69.668945 443.038635,70.446556 443.018097,71.612564 
	C435.405670,73.090942 427.779449,72.294983 420.173676,72.458153 
	C413.367950,72.604164 406.550537,72.317955 399.750153,72.557899 
	C396.125763,72.685783 394.431915,71.295357 394.401825,67.795448 
	C394.353394,62.161545 393.862671,56.520409 394.816223,50.449638 
z"/>
<path fill="#FCFADF" opacity="1.000000" stroke="none" 
	d="
M150.412079,14.660079 
	C137.237305,14.334790 124.494522,14.251661 111.273056,14.095660 
	C111.763222,12.219188 113.466881,13.039967 114.816025,13.039340 
	C205.776840,12.997066 296.737671,13.000642 387.698486,13.009037 
	C388.358704,13.009098 389.018890,13.129818 389.882507,13.587689 
	C373.369873,14.065342 356.653870,14.149505 339.479858,14.325853 
	C336.643951,16.012745 333.931488,15.736294 331.296783,15.722794 
	C312.545776,15.626723 293.792725,16.016144 274.550659,15.499378 
	C252.382141,15.939250 230.705841,15.791099 208.537643,15.548619 
	C190.935959,15.999929 173.822495,15.632526 156.710922,15.721888 
	C154.725983,15.732253 152.707382,15.831498 150.412079,14.660079 
z"/>
<path fill="#FFFBEA" opacity="1.000000" stroke="none" 
	d="
M57.479122,80.209427 
	C57.913509,87.018364 57.976273,94.046646 58.104164,101.539673 
	C59.575897,103.643890 59.693150,105.649025 59.690346,107.651718 
	C59.674305,119.114090 59.908058,130.577423 59.557144,142.530914 
	C59.978889,163.636475 59.677261,184.251724 59.684803,204.866135 
	C59.685352,206.366684 59.529079,207.860596 58.451958,209.606720 
	C58.093170,233.028534 58.022213,256.045929 57.888596,279.527283 
	C56.264305,279.090973 57.042839,277.591034 57.042007,276.404205 
	C56.996700,211.576996 57.000381,146.749756 57.004002,81.922516 
	C57.004032,81.424606 57.071514,80.926689 57.479122,80.209427 
z"/>
<path fill="#FEE16B" opacity="1.000000" stroke="none" 
	d="
M77.481476,396.909363 
	C78.757530,395.325073 80.850281,396.044678 82.766922,396.042877 
	C135.860336,395.992340 188.953796,395.993439 242.514221,396.009644 
	C243.153442,396.160339 243.325714,396.287415 243.268951,396.639526 
	C222.261185,396.909698 201.482483,396.982758 180.703751,396.993713 
	C146.450592,397.011780 112.197418,396.989716 77.481476,396.909363 
z"/>
<path fill="#F5F5F5" opacity="1.000000" stroke="none" 
	d="
M193.204773,405.103149 
	C214.142578,406.717010 234.766220,405.136932 255.164642,400.476044 
	C235.068558,408.845764 214.366989,410.132904 193.204773,405.103149 
z"/>
<path fill="#FBDB2B" opacity="1.000000" stroke="none" 
	d="
M443.209351,307.251343 
	C443.002563,306.248169 443.002655,305.498779 443.001373,304.374695 
	C441.381744,302.269165 441.297485,300.088837 441.299011,297.922424 
	C441.310608,281.650940 441.100800,265.378906 441.431580,248.620773 
	C441.084778,231.012863 441.311615,213.890808 441.403870,196.299561 
	C441.534302,193.356079 441.181335,190.856201 442.106567,188.000214 
	C442.502411,187.347153 442.707855,187.116837 443.372986,186.941162 
	C443.887665,218.549362 443.946899,250.102936 443.994720,281.656494 
	C444.007080,289.795013 443.983521,297.933594 443.904510,306.535858 
	C443.693787,307.168091 443.555023,307.336609 443.209351,307.251343 
z"/>
<path fill="#FFF3C5" opacity="1.000000" stroke="none" 
	d="
M314.907898,396.233643 
	C351.441254,396.063202 387.759399,396.047760 424.542786,396.091797 
	C423.753052,397.846161 421.959351,396.951324 420.454315,396.953796 
	C385.597748,397.011383 350.741058,396.997375 315.417542,396.924377 
	C314.864716,396.697632 314.778717,396.543152 314.907898,396.233643 
z"/>
<path fill="#FAE53D" opacity="1.000000" stroke="none" 
	d="
M443.904236,186.532242 
	C443.832672,186.995804 443.419983,186.992188 443.213654,186.989899 
	C441.355682,185.473831 441.323761,183.424408 441.311737,181.444092 
	C441.216766,165.826294 441.224915,150.208160 441.302917,134.590240 
	C441.311249,132.926208 441.439362,131.260223 442.684296,129.397476 
	C443.105835,113.225342 443.217773,97.445190 443.585907,81.341354 
	C443.886658,116.034676 443.931213,151.051682 443.904236,186.532242 
z"/>
<path fill="#FCFADF" opacity="1.000000" stroke="none" 
	d="
M57.476257,287.206421 
	C57.908752,306.015442 57.970657,325.046600 58.101402,344.542480 
	C58.104080,355.696869 58.037922,366.386475 57.905563,377.540588 
	C56.574841,377.474030 57.015263,376.341797 57.015694,375.442291 
	C57.029766,346.104370 57.069633,316.766449 57.476257,287.206421 
z"/>
<path fill="#CEE3F5" opacity="1.000000" stroke="none" 
	d="
M315.012085,395.968567 
	C315.123108,396.078674 315.001831,396.457489 314.976257,396.654785 
	C291.288055,396.898590 267.625427,396.945068 243.501343,396.928040 
	C243.039902,396.864563 243.024933,396.447693 243.003052,396.240479 
	C242.981171,396.033295 243.384155,395.869537 243.599533,395.839233 
	C245.814209,394.298920 248.162064,394.279144 250.500916,394.275787 
	C269.649414,394.248322 288.797943,394.248260 307.946442,394.278351 
	C309.940277,394.281494 311.956329,394.243652 314.206116,395.482147 
	C314.595001,395.794006 314.901062,395.858459 315.012085,395.968567 
z"/>
<path fill="#FACE13" opacity="1.000000" stroke="none" 
	d="
M58.102402,72.242279 
	C71.129227,71.993118 84.092308,72.005020 97.523453,72.024048 
	C98.164635,72.192764 98.337746,72.354355 98.256027,72.763390 
	C85.026154,73.044380 72.051125,73.077919 58.619278,73.068909 
	C58.121185,72.852020 58.079922,72.677681 58.102402,72.242279 
z"/>
<path fill="#FAD617" opacity="1.000000" stroke="none" 
	d="
M443.000244,307.466492 
	C443.002441,306.997559 443.417511,306.998779 443.625061,306.999176 
	C443.881561,317.683716 443.930573,328.367828 443.907166,339.514191 
	C442.076477,335.845551 443.188080,331.517731 443.052765,327.289612 
	C442.846466,320.844208 442.998322,314.387390 443.000244,307.466492 
z"/>
<path fill="#FCFADF" opacity="1.000000" stroke="none" 
	d="
M416.905853,50.490273 
	C416.509308,50.757626 416.186035,50.564243 415.690887,50.140598 
	C413.404785,42.595604 413.979401,35.238056 415.405914,27.446480 
	C415.715698,26.308371 415.787598,25.594517 415.841919,24.520016 
	C418.025299,24.776783 416.915680,26.589003 416.934723,27.775459 
	C417.053894,35.191811 416.985474,42.611176 416.905853,50.490273 
z"/>
<path fill="#FFF3C5" opacity="1.000000" stroke="none" 
	d="
M86.480873,48.594856 
	C85.988419,49.610481 85.776627,50.223545 85.245071,50.917961 
	C85.015091,42.103313 85.104881,33.207321 85.581093,24.093231 
	C86.022102,24.664082 86.076691,25.453030 86.207840,26.630743 
	C88.727966,34.025620 88.062675,41.101795 86.480873,48.594856 
z"/>
<path fill="#FEE16B" opacity="1.000000" stroke="none" 
	d="
M235.384705,491.911652 
	C241.734756,490.057190 248.646210,491.233734 255.813629,491.511627 
	C249.356476,491.884216 242.606033,491.940002 235.384705,491.911652 
z"/>
<path fill="#F5B513" opacity="1.000000" stroke="none" 
	d="
M255.509888,462.091797 
	C250.923676,463.783722 245.795914,462.957855 240.365845,462.416809 
	C245.046997,462.116272 250.048370,462.069000 255.509888,462.091797 
z"/>
<path fill="#F5F5F5" opacity="1.000000" stroke="none" 
	d="
M193.350311,404.664215 
	C190.001007,405.729431 187.198502,404.438446 184.460129,402.495789 
	C187.786545,400.723083 190.053528,403.500977 193.005096,404.493103 
	C193.255081,404.756470 193.317688,404.694031 193.350311,404.664215 
z"/>
<path fill="#FFF3C5" opacity="1.000000" stroke="none" 
	d="
M396.814514,403.500366 
	C392.974426,403.929901 388.926666,403.983643 384.416809,403.969269 
	C388.064362,401.887329 392.395142,403.475952 396.814514,403.500366 
z"/>
<path fill="#FBDB4B" opacity="1.000000" stroke="none" 
	d="
M375.668060,416.866211 
	C378.838043,415.459351 382.518951,415.983795 386.501831,416.582275 
	C383.240753,416.849365 379.671295,416.888092 375.668060,416.866211 
z"/>
<path fill="#F8F0AB" opacity="1.000000" stroke="none" 
	d="
M429.966003,59.636047 
	C429.415283,60.340141 428.879303,60.077377 428.190674,59.420601 
	C428.636505,59.215122 429.256470,59.268841 429.966003,59.636047 
z"/>
<path fill="#F8F0AB" opacity="1.000000" stroke="none" 
	d="
M441.971588,67.640717 
	C441.351105,68.264801 440.747223,68.061363 440.102936,67.249634 
	C440.630402,67.058479 441.256653,67.191780 441.971588,67.640717 
z"/>
<path fill="#F8F0AB" opacity="1.000000" stroke="none" 
	d="
M435.968872,63.639397 
	C435.342957,64.310760 434.747650,64.071327 434.103760,63.253319 
	C434.629456,63.059219 435.254425,63.192032 435.968872,63.639397 
z"/>
<path fill="#F8F0AB" opacity="1.000000" stroke="none" 
	d="
M438.968567,65.639359 
	C438.341919,66.315849 437.745361,66.077888 437.102478,65.254684 
	C437.629578,65.059265 438.254242,65.192139 438.968567,65.639359 
z"/>
<path fill="#F8F0AB" opacity="1.000000" stroke="none" 
	d="
M434.014313,62.707920 
	C433.720367,62.832794 433.369110,62.688221 433.023926,62.238113 
	C433.338989,62.101208 433.647980,62.269840 434.014313,62.707920 
z"/>
<path fill="#FBDB4B" opacity="1.000000" stroke="none" 
	d="
M391.033264,14.697940 
	C390.800507,14.795794 390.488068,14.635909 390.108246,14.215408 
	C390.345093,14.116596 390.649323,14.278399 391.033264,14.697940 
z"/>
<path fill="#F8F0AB" opacity="1.000000" stroke="none" 
	d="
M440.014343,66.708511 
	C439.722107,66.832825 439.371307,66.687637 439.024719,66.237381 
	C439.337860,66.101212 439.646820,66.270111 440.014343,66.708511 
z"/>
<path fill="#F8F0AB" opacity="1.000000" stroke="none" 
	d="
M437.013763,64.707977 
	C436.721405,64.832397 436.371307,64.687447 436.025024,64.237411 
	C436.337891,64.101074 436.646973,64.269836 437.013763,64.707977 
z"/>
<path fill="#F8F0AB" opacity="1.000000" stroke="none" 
	d="
M432.951477,61.624809 
	C432.644165,61.875904 432.225861,61.789982 431.643921,61.399872 
	C431.933685,61.159721 432.387085,61.223759 432.951477,61.624809 
z"/>
<path fill="#F8F0AB" opacity="1.000000" stroke="none" 
	d="
M431.240234,60.818184 
	C431.002808,60.918934 430.574005,60.767418 430.081085,60.272854 
	C430.360962,60.141842 430.704895,60.353878 431.240234,60.818184 
z"/>
<path fill="#FFF3C5" opacity="1.000000" stroke="none" 
	d="
M84.714111,50.989151 
	C84.823929,51.273849 84.662399,51.618603 84.190399,51.965717 
	C84.067551,51.661789 84.255150,51.355503 84.714111,50.989151 
z"/>
<path fill="#F8F0AB" opacity="1.000000" stroke="none" 
	d="
M443.019714,68.709808 
	C442.729340,68.832016 442.379486,68.683449 442.028687,68.233215 
	C442.338562,68.100716 442.649414,68.269875 443.019714,68.709808 
z"/>
<path fill="#F8DF24" opacity="1.000000" stroke="none" 
	d="
M442.525879,129.003357 
	C442.998596,148.021378 443.003326,167.037247 443.007690,186.520386 
	C443.003601,189.364059 442.999908,191.740509 442.993835,194.561829 
	C441.697601,196.216980 440.087860,196.597717 438.401367,196.600723 
	C430.613312,196.614624 422.820007,197.033463 414.616577,196.231186 
	C410.931152,194.604645 411.097839,191.337387 410.364471,188.554199 
	C408.574829,181.762741 407.975220,174.449295 401.576477,169.344025 
	C395.922791,164.972214 389.489319,164.470428 383.225952,164.515961 
	C366.822418,164.635178 350.690399,166.911652 335.341125,173.021637 
	C317.940308,179.948242 303.586273,190.998367 292.139191,205.826355 
	C290.927155,207.396347 289.883820,209.149826 287.598694,210.069885 
	C211.166046,210.057373 135.122177,210.030685 58.621223,210.007568 
	C58.124840,187.986618 58.085552,165.962112 58.107529,143.473145 
	C60.673500,140.687332 63.810806,141.310287 66.739845,141.306381 
	C103.226822,141.257721 139.713882,141.278687 176.658096,141.316208 
	C177.415329,141.347382 177.715378,141.336792 178.456390,141.317566 
	C179.175980,141.381866 179.454590,141.454803 180.076843,141.778473 
	C180.770309,142.458771 181.066803,142.922272 181.492813,143.769012 
	C181.793015,144.347870 181.906601,144.579773 182.172653,145.161774 
	C193.727005,169.565796 227.731262,192.639130 259.434875,188.450119 
	C286.877167,184.824173 308.171021,171.472336 321.969757,147.034943 
	C322.789032,145.584030 323.663666,144.166931 324.593689,142.383484 
	C324.960327,141.420914 325.284515,140.824127 325.723572,139.924667 
	C325.954865,139.441803 326.048401,139.250671 326.278076,138.774017 
	C326.583649,138.101501 326.746552,137.711823 327.009583,137.016602 
	C328.084229,134.504059 329.511963,132.578461 331.112061,130.373886 
	C331.529053,130.009125 331.717407,129.888550 332.241211,129.770416 
	C369.059998,128.038605 405.565552,129.463287 442.525879,129.003357 
z"/>
<path fill="#136CB1" opacity="1.000000" stroke="none" 
	d="
M287.115601,210.421356 
	C298.234558,194.948669 311.541138,182.433853 328.703156,174.495773 
	C348.106750,165.520859 368.557495,162.276123 389.824249,163.778442 
	C394.039398,164.076202 397.964630,165.252441 401.805176,167.649734 
	C399.953125,169.979309 397.554169,169.009521 394.816040,168.687927 
	C388.876740,168.241638 383.360931,168.504303 377.434052,168.455582 
	C370.462128,169.670990 363.754669,169.306351 357.180939,170.545181 
	C322.476532,177.085327 299.025055,197.639160 284.358917,229.020020 
	C276.643433,245.528748 274.422150,263.472870 271.391663,281.187469 
	C270.895905,284.085358 271.009857,287.227417 268.377960,289.807129 
	C255.619003,290.965851 243.227051,290.193573 230.846649,290.435577 
	C228.699005,290.477570 226.549942,290.423096 223.922302,290.495178 
	C222.805450,290.639313 222.163162,290.682465 221.033829,290.594421 
	C203.029846,290.318817 185.507233,290.522583 167.985397,290.418579 
	C165.717819,290.405121 163.310791,290.870331 161.190552,288.727386 
	C173.426651,286.865692 185.797394,285.474884 198.578384,283.980530 
	C219.309036,283.890137 239.630524,283.801483 259.948914,284.011749 
	C263.538513,284.048859 264.388885,282.511047 264.931335,279.527039 
	C266.715607,269.712402 268.549530,259.901886 270.642303,250.149414 
	C273.671753,236.032013 279.229462,222.919281 287.115601,210.421356 
z"/>
<path fill="#F8E32A" opacity="1.000000" stroke="none" 
	d="
M174.796997,106.652634 
	C182.754105,104.442444 190.409958,105.025566 198.028336,105.017548 
	C234.959671,104.978661 271.891052,104.994614 308.822418,105.005875 
	C314.286835,105.007538 319.777985,104.648827 325.593018,105.998123 
	C327.152435,106.970856 327.171417,108.279770 327.075562,109.992500 
	C326.933685,110.871696 326.808960,111.360611 326.551392,112.194778 
	C325.670013,115.816963 324.629333,119.001518 323.214172,122.432991 
	C322.862091,123.167725 322.646362,123.576897 322.268402,124.284523 
	C320.860016,126.942940 319.625092,129.309692 317.974457,131.821655 
	C317.303741,132.833511 316.726532,133.504196 316.076843,134.532410 
	C314.509277,136.869995 312.631470,138.487473 310.742188,140.551605 
	C307.409180,144.230850 303.627502,146.809326 299.523499,149.538147 
	C296.375153,151.245529 293.392059,152.535522 290.411072,154.576447 
	C289.665314,154.973206 289.216217,155.156799 288.401062,155.421509 
	C284.044067,157.075241 279.921997,158.227615 275.385559,159.343842 
	C271.415070,160.382141 267.734375,160.841019 263.666595,161.401886 
	C262.993042,161.421432 262.722961,161.430038 262.046967,161.459137 
	C257.847015,162.113266 254.042953,162.636002 249.766830,162.516174 
	C249.079178,162.491257 248.805435,162.465042 248.120438,162.415787 
	C241.256851,161.460938 234.747314,160.897263 228.003326,159.291397 
	C224.785858,158.151917 221.910995,157.224106 218.694153,156.153900 
	C217.666855,155.766861 217.017075,155.438751 216.036499,154.980652 
	C212.259033,152.944641 208.697800,151.266022 204.884583,149.323776 
	C202.043854,147.666733 199.759430,145.808517 197.076050,143.933441 
	C194.698196,142.089874 192.959763,140.057022 190.781769,138.005371 
	C189.923187,137.154297 189.337646,136.498703 188.453766,135.672455 
	C185.928864,133.301758 184.021210,130.853119 182.153351,127.933502 
	C181.689178,127.275253 181.425156,126.893837 180.950867,126.221237 
	C177.148956,120.204941 174.545593,114.143471 174.796997,106.652634 
z"/>
<path fill="#F8E52B" opacity="1.000000" stroke="none" 
	d="
M179.130981,141.549789 
	C177.462479,143.723969 175.315628,142.964752 173.416977,142.967010 
	C135.305374,143.012161 97.193680,143.002045 58.625397,143.005875 
	C58.127949,129.650513 58.087112,116.292336 58.107788,102.469292 
	C85.900421,102.002953 113.631859,101.931976 141.362411,102.057762 
	C147.009277,102.083366 152.574173,102.611115 156.606903,97.038483 
	C158.983826,98.851395 159.544495,101.899094 162.346771,103.590500 
	C163.347763,104.836304 163.782623,105.968056 164.188995,107.506180 
	C164.942352,111.889732 166.108612,115.783195 167.597992,119.951622 
	C167.800262,120.499176 167.876312,120.718231 168.056030,121.265610 
	C169.109436,125.327087 171.147217,128.509613 173.450348,131.926483 
	C173.906738,132.556473 174.158508,132.922668 174.593750,133.567703 
	C176.071869,136.418198 178.362656,138.391876 179.130981,141.549789 
z"/>
<path fill="#FFFEFB" opacity="1.000000" stroke="none" 
	d="
M321.804749,123.098312 
	C322.979004,119.531525 324.032288,116.192406 325.212952,112.493027 
	C326.114990,111.816643 326.916626,111.819687 328.021118,111.991241 
	C328.505249,112.105446 328.695587,112.159691 329.164795,112.306610 
	C330.171692,112.653839 330.910034,112.869659 331.957306,113.048012 
	C332.428711,113.152008 332.615601,113.201874 333.077332,113.344208 
	C333.898102,113.634262 334.439331,113.844872 335.263885,114.138557 
	C335.706451,114.348846 335.874512,114.451874 336.232300,114.781433 
	C336.492828,115.191490 336.563629,115.375008 336.805939,115.798660 
	C336.670532,120.110924 334.939362,123.719200 333.090088,127.652710 
	C332.149658,128.507919 331.338898,128.305878 330.245453,128.106812 
	C329.770599,127.980522 329.585175,127.922066 329.132080,127.761002 
	C328.351959,127.447197 327.845154,127.221458 327.060852,126.976059 
	C326.639526,126.842133 326.473694,126.783905 326.068481,126.621811 
	C325.522278,126.365707 325.217285,126.209930 324.685974,125.942734 
	C324.307678,125.759743 324.157654,125.684380 323.786346,125.490059 
	C323.268921,125.211128 322.973572,125.049721 322.456024,124.760338 
	C322.100250,124.524773 321.967529,124.415550 321.727081,124.071945 
	C321.640808,123.667038 321.662262,123.496506 321.804749,123.098312 
z"/>
<path fill="#FBF9F2" opacity="1.000000" stroke="none" 
	d="
M163.558350,108.301392 
	C162.963135,106.917610 162.684387,105.805305 162.293518,104.367355 
	C159.943817,101.623047 160.225266,98.990944 161.831802,95.942795 
	C165.418762,93.879738 168.949081,94.840935 173.217209,94.802177 
	C175.490967,98.252243 174.541824,101.773598 175.101440,105.610657 
	C175.204437,106.055145 175.000488,106.041962 174.905685,106.003807 
	C171.525543,108.344803 167.924088,109.398010 163.558350,108.301392 
z"/>
<path fill="#FBFAF6" opacity="1.000000" stroke="none" 
	d="
M339.949951,103.337982 
	C339.553467,103.512314 339.235291,103.723434 339.097473,103.855530 
	C334.878143,105.810837 331.257446,104.020927 327.256836,102.281158 
	C325.887909,98.773178 326.068512,95.581566 327.665955,92.203293 
	C330.822205,90.378349 333.773621,91.934746 337.098877,91.699013 
	C341.412933,94.765816 342.194580,98.641403 339.949951,103.337982 
z"/>
<path fill="#FEFDF9" opacity="1.000000" stroke="none" 
	d="
M325.989441,111.195923 
	C325.885986,109.572289 325.989685,108.198380 326.058289,106.412148 
	C326.268646,105.201782 326.514191,104.403755 326.847900,103.302612 
	C330.865082,102.333214 334.406097,104.444176 338.559204,104.823303 
	C339.425018,108.330162 338.617126,111.409943 337.408417,114.764130 
	C336.978790,115.177948 336.770905,115.293228 336.273682,115.200012 
	C335.984406,114.991508 336.001129,114.998810 336.007996,115.004791 
	C335.319275,114.260025 334.350983,114.595100 333.250793,114.188034 
	C332.981842,113.991821 333.000671,113.998642 333.008484,114.004868 
	C331.998444,113.079369 330.706543,113.697380 329.279205,113.197891 
	C328.982391,112.993019 329.000366,112.998955 329.006958,113.005737 
	C328.212097,112.243011 327.055450,112.112045 325.989441,111.195923 
z"/>
<path fill="#FAD617" opacity="1.000000" stroke="none" 
	d="
M163.068756,95.773987 
	C161.648819,98.289406 162.409241,100.772644 162.237213,103.618195 
	C158.565643,103.492119 157.539673,100.812607 156.976929,97.363983 
	C157.073730,89.711922 158.548477,88.335953 164.962189,90.062851 
	C165.496552,91.965294 164.592850,93.230522 163.929443,94.872131 
	C163.622986,95.298058 163.480438,95.453209 163.068756,95.773987 
z"/>
<path fill="#FAD617" opacity="1.000000" stroke="none" 
	d="
M339.763550,103.768005 
	C339.953766,99.618378 339.869690,95.808220 337.324646,92.165924 
	C336.910828,91.833473 336.798828,91.706627 336.807861,91.356651 
	C342.001312,89.035019 345.477356,91.658676 344.961212,97.372650 
	C344.678741,100.500145 343.771545,103.412613 339.763550,103.768005 
z"/>
<path fill="#FBF9F2" opacity="1.000000" stroke="none" 
	d="
M163.363373,95.208511 
	C162.936508,93.334198 163.883957,92.124603 165.003876,90.645844 
	C169.073532,89.591125 172.593369,89.645561 174.136902,94.573181 
	C174.062302,94.948746 174.007568,94.987595 173.979218,95.005554 
	C170.591187,95.978523 167.166382,95.315674 163.363373,95.208511 
z"/>
<path fill="#FEFDF9" opacity="1.000000" stroke="none" 
	d="
M336.565125,90.984741 
	C336.928864,91.133522 336.996979,91.544510 337.009918,91.752419 
	C334.280396,94.361046 331.514923,92.208977 328.354492,91.981827 
	C330.278748,88.496109 333.239288,89.660225 336.565125,90.984741 
z"/>
<path fill="#DFDFDC" opacity="1.000000" stroke="none" 
	d="
M338.954712,104.802216 
	C335.062317,105.043442 331.407288,104.011566 327.333679,103.049042 
	C326.936066,102.999496 326.836639,102.513443 326.876434,102.268524 
	C330.662872,102.674950 334.409515,103.326294 338.557892,103.982628 
	C338.977966,104.169800 338.996277,104.351990 338.954712,104.802216 
z"/>
<path fill="#DFDFDC" opacity="1.000000" stroke="none" 
	d="
M328.884857,127.334518 
	C330.077667,127.223724 331.169189,127.458183 332.574463,127.821640 
	C332.838684,128.358887 332.789215,128.767120 332.658203,129.474106 
	C332.576691,129.772858 332.292786,129.850342 332.149353,129.883255 
	C330.316711,130.056976 329.258087,129.289185 328.884857,127.334518 
z"/>
<path fill="#DFDFDC" opacity="1.000000" stroke="none" 
	d="
M336.077362,115.225105 
	C336.185089,114.994873 336.385803,114.998245 336.886627,115.032135 
	C337.180023,115.231255 337.173309,115.399849 337.072021,115.803619 
	C336.708374,115.845421 336.439362,115.652061 336.077362,115.225105 
z"/>
<path fill="#117BD3" opacity="1.000000" stroke="none" 
	d="
M220.504974,289.249939 
	C221.413177,289.045502 221.886795,289.043213 222.715485,289.051056 
	C231.300644,290.053345 239.561752,289.350189 247.807175,289.480774 
	C254.589203,289.588196 261.376007,289.595093 268.574097,289.223511 
	C272.840454,261.185730 276.444397,233.239731 293.679901,209.650452 
	C309.944824,187.389587 331.165375,172.957993 358.951385,168.797363 
	C364.379150,167.984634 369.947601,168.927429 375.640289,167.048279 
	C382.083923,168.071091 388.142456,167.293488 394.562500,167.247528 
	C397.024323,167.359665 399.103760,167.675674 401.584503,167.972366 
	C405.964447,169.836334 407.639282,173.550446 408.783508,177.341400 
	C410.458038,182.889114 411.613983,188.593353 413.111298,194.618713 
	C417.981201,203.155975 415.085114,211.175491 406.349335,214.079163 
	C403.159943,215.139297 399.874939,215.600220 396.533813,215.433563 
	C390.028534,215.109085 383.575012,215.987106 377.190796,216.794434 
	C364.164612,218.441650 354.338959,225.222748 348.146790,236.964020 
	C346.441895,240.196732 344.878113,243.496689 343.557953,247.340759 
	C340.311188,259.242096 338.933929,271.100952 336.472290,283.137085 
	C336.353058,285.151550 335.305664,286.778198 336.664276,288.660889 
	C340.476196,290.250610 344.136139,289.422058 347.727081,289.533234 
	C356.787964,289.813751 365.862976,289.178528 375.357300,290.058624 
	C377.310303,291.136688 378.001373,292.450836 377.531250,294.663544 
	C377.519165,305.340607 376.024323,315.212280 371.111847,324.384583 
	C367.591431,330.957672 362.368927,334.524353 354.728729,334.423584 
	C346.263214,334.311890 337.793671,334.488892 329.328766,334.357300 
	C326.572418,334.314484 325.130707,334.899994 324.748871,338.009125 
	C324.083435,343.427612 322.903229,348.782867 321.984100,354.585388 
	C319.021179,368.220276 316.921936,381.600800 314.656067,395.377991 
	C291.320068,395.849182 268.045135,395.904388 244.292572,395.884277 
	C246.370392,381.024567 248.927567,366.240448 251.478729,351.455292 
	C251.731079,349.992767 251.946625,348.523865 252.149185,346.649475 
	C252.216217,346.105927 252.364029,345.984009 252.403183,345.833771 
	C255.374619,334.433105 255.372681,334.318420 243.677902,334.451141 
	C199.737961,334.949799 155.886887,332.209778 111.532394,330.927795 
	C109.599396,330.112396 108.027428,330.600708 106.176270,330.638550 
	C103.497833,330.569611 101.141327,330.412292 98.402763,330.145996 
	C97.904221,329.872040 97.787743,329.707123 97.914352,329.361572 
	C131.047882,327.425507 163.939346,325.688232 196.825516,323.856018 
	C198.317612,323.772858 201.028595,324.925049 200.933746,321.836670 
	C200.852509,319.191803 200.431671,316.707245 196.717422,316.257935 
	C186.014847,314.963226 175.351227,313.346283 164.655914,311.040527 
	C173.580215,310.328278 182.514786,309.718689 191.421402,308.829437 
	C193.565857,308.615356 196.960541,309.884674 197.551773,306.663391 
	C198.257919,302.815826 195.123840,299.730774 190.954697,299.116516 
	C174.217468,296.650635 157.482422,294.169983 140.503677,291.658875 
	C142.367157,289.137329 144.947021,290.391724 147.449020,289.892151 
	C148.001495,289.830109 148.146011,289.719116 148.531403,289.737305 
	C149.273514,289.709869 149.774734,289.553345 150.670898,289.413269 
	C174.067352,289.445892 197.068817,289.623199 220.504974,289.249939 
z"/>
<path fill="#2C87CD" opacity="1.000000" stroke="none" 
	d="
M220.477509,289.034729 
	C220.083481,290.097778 218.883957,289.991364 217.724075,289.988678 
	C195.739182,289.937958 173.754272,289.883575 151.417603,289.629822 
	C154.120331,289.004181 157.174835,288.578674 160.642609,288.204803 
	C162.681366,289.485291 164.571869,288.975952 166.346939,288.980194 
	C184.236374,289.023163 202.125916,289.015228 220.477509,289.034729 
z"/>
<path fill="#8CAB7B" opacity="1.000000" stroke="none" 
	d="
M97.707031,329.170288 
	C98.157440,329.180908 98.156311,329.619507 98.088509,329.828247 
	C95.303467,331.879333 92.801704,329.465271 90.151649,329.658691 
	C92.479446,328.710815 94.872299,328.998169 97.707031,329.170288 
z"/>
<path fill="#8CAB7B" opacity="1.000000" stroke="none" 
	d="
M106.271362,330.868866 
	C107.367134,329.830170 108.921066,330.113983 110.774994,330.739258 
	C109.608894,330.945435 108.148643,330.978119 106.271362,330.868866 
z"/>
<path fill="#2C87CD" opacity="1.000000" stroke="none" 
	d="
M148.628021,289.756592 
	C148.587936,289.988342 148.385559,290.041077 148.011047,289.982849 
	C148.002502,289.707855 148.211441,289.609711 148.628021,289.756592 
z"/>
<path fill="#FAD617" opacity="1.000000" stroke="none" 
	d="
M377.534302,295.422180 
	C376.991089,293.942200 376.654907,292.786011 376.126099,291.322845 
	C375.471069,290.682648 374.996399,290.368011 374.172821,289.807434 
	C370.843750,286.469025 367.108551,285.526459 362.944550,285.553284 
	C355.965729,285.598267 348.985840,285.595581 342.006775,285.544281 
	C339.867615,285.528564 337.657532,285.777008 335.412964,284.179260 
	C336.951630,271.751465 338.746460,259.606293 342.174316,247.381470 
	C343.618408,246.058472 345.092285,246.038162 346.615601,246.062424 
	C375.718262,246.526077 404.823120,246.131241 433.926575,246.285873 
	C436.724030,246.300735 439.610229,245.883102 442.608337,247.697906 
	C442.998413,266.356659 443.001678,284.709686 443.002472,303.531342 
	C424.346466,304.000000 405.692932,304.000061 387.039398,303.999969 
	C378.372437,303.999939 378.372437,303.999817 377.534302,295.422180 
z"/>
<path fill="#F8CF1B" opacity="1.000000" stroke="none" 
	d="
M98.467247,73.065376 
	C98.001183,73.010841 97.998070,72.520638 97.994797,72.275909 
	C99.293152,72.020691 100.610268,71.876831 101.893356,72.025909 
	C105.132027,72.402199 106.420418,70.991997 106.025864,67.417267 
	C133.075317,43.180588 163.694901,26.106493 198.881744,17.612490 
	C201.782913,16.912161 204.739471,16.347929 207.683517,14.616005 
	C229.691208,14.347142 251.388702,14.282503 273.544678,14.316223 
	C276.625763,16.085720 279.690826,16.086739 282.596619,16.586660 
	C297.038361,19.071274 311.104370,22.897360 324.770630,28.179369 
	C327.078430,29.071333 329.541534,29.867296 330.342804,33.068237 
	C329.979187,34.958710 328.533325,35.209465 327.442627,35.883446 
	C320.825439,39.972469 320.590942,46.607834 326.917816,51.068077 
	C327.995972,51.828129 329.246643,52.328522 330.482574,53.526062 
	C331.173706,54.517124 331.385132,55.260155 330.803925,56.331108 
	C328.167236,57.397526 326.238068,56.215256 324.270935,55.376659 
	C299.110870,44.650742 272.899139,38.961761 245.511078,39.584976 
	C225.398895,40.042633 205.793549,43.690453 186.828873,50.537617 
	C184.491211,51.381626 182.215607,52.544796 179.225891,51.949989 
	C176.688019,50.581528 178.046509,48.966640 178.469940,47.508701 
	C180.064743,42.017487 178.412292,37.498188 174.162201,35.904682 
	C169.249008,34.062553 165.036621,35.826130 162.246338,41.164661 
	C161.755310,42.506912 161.361496,43.529797 161.788406,44.983490 
	C161.914276,45.774216 161.926926,46.234177 161.843048,47.045479 
	C161.038773,49.628231 159.193253,50.730850 157.281952,51.753624 
	C146.332138,57.613033 135.954971,64.322655 126.262619,72.683426 
	C116.978287,72.990913 107.955795,73.055412 98.467247,73.065376 
z"/>
<path fill="#F9CE15" opacity="1.000000" stroke="none" 
	d="
M330.186768,34.080101 
	C329.066071,31.709482 327.374695,30.721069 325.236694,29.860607 
	C309.672882,23.596767 293.457703,19.851643 276.985779,17.055458 
	C275.672272,16.832483 274.230042,17.022678 274.028870,14.780264 
	C295.368835,14.348976 316.734497,14.283368 338.560974,14.317902 
	C338.790833,16.646526 340.135712,17.706947 341.961395,18.460623 
	C359.827179,25.835888 375.690979,36.490959 390.808929,48.354046 
	C391.873077,49.189083 392.827271,50.074986 394.655151,49.997200 
	C397.012177,55.663612 395.846405,61.516346 395.887543,67.265732 
	C395.913940,70.962013 396.980438,72.135674 400.716614,72.081886 
	C414.493896,71.883530 428.275726,71.999046 442.523712,71.998749 
	C441.917389,73.934502 440.053345,73.144394 438.541107,73.146461 
	C422.338440,73.168617 406.135620,73.106468 389.466827,73.013123 
	C376.331329,60.083931 361.318054,50.468800 345.632324,41.792053 
	C344.175842,40.986397 342.582214,40.512772 340.657562,39.958115 
	C338.125092,38.743538 336.659637,36.654266 334.232330,35.329651 
	C333.396454,34.915947 332.816315,34.730801 331.878235,34.709824 
	C331.139679,34.667366 330.740326,34.542545 330.186768,34.080101 
z"/>
<path fill="#F6C118" opacity="1.000000" stroke="none" 
	d="
M177.611481,50.848663 
	C181.103256,51.529652 183.751831,49.968418 186.562271,49.001595 
	C202.125061,43.647861 218.044571,40.371761 234.505478,38.807060 
	C260.074829,36.376556 284.683258,40.172825 308.871826,47.898933 
	C316.116058,50.212826 323.122894,53.269897 330.619141,55.992470 
	C339.458649,59.189575 346.874207,64.212975 354.241302,69.305695 
	C355.193787,69.964134 355.702301,71.072273 355.218323,72.645424 
	C350.636017,72.985550 346.276672,73.027451 341.455811,73.007027 
	C313.377655,56.531612 283.657257,47.782986 251.389236,47.394642 
	C218.025177,46.993111 187.281326,55.697613 158.311981,72.683533 
	C153.646408,72.982758 149.287704,73.018402 144.467087,73.000992 
	C142.498718,69.874519 145.114334,68.759995 146.856018,67.610466 
	C152.067184,64.171089 157.406509,60.919243 162.970169,58.060204 
	C165.159958,56.934914 167.442261,55.948395 169.409821,53.805656 
	C172.128235,52.376438 174.466400,50.924053 177.611481,50.848663 
z"/>
<path fill="#F5B513" opacity="1.000000" stroke="none" 
	d="
M158.466614,73.004074 
	C158.574310,69.568306 161.671249,68.833832 164.013977,67.562263 
	C183.304749,57.091743 203.894623,50.006840 225.583298,47.257591 
	C258.436005,43.093204 290.354828,47.279716 320.860046,60.839981 
	C326.645538,63.411747 332.213287,66.307884 337.728546,69.360405 
	C339.015930,70.072937 340.562347,70.504250 340.951538,72.598747 
	C336.302582,72.979675 331.610931,73.014656 326.456665,72.984299 
	C309.102539,63.805878 291.006561,58.298088 272.073517,55.803997 
	C241.755371,51.810116 212.357819,55.621044 184.050018,67.373436 
	C180.208908,68.968124 176.601837,71.079330 172.332306,72.686653 
	C167.646378,72.976860 163.287231,73.018951 158.466614,73.004074 
z"/>
<path fill="#F7CF1B" opacity="1.000000" stroke="none" 
	d="
M355.461426,73.002960 
	C352.515625,67.486252 346.669769,66.362289 342.384033,63.248329 
	C338.933777,60.741425 334.672974,59.458416 331.272400,56.197266 
	C330.738678,55.501740 330.477539,55.005032 330.108093,54.248920 
	C330.271362,53.576653 330.588318,53.141968 331.042633,52.996002 
	C337.599487,50.889259 340.383270,46.370388 339.870270,39.291954 
	C346.986115,39.225220 351.927399,43.904327 357.426971,47.092495 
	C367.473083,52.916363 376.607178,60.121326 385.678619,67.367752 
	C387.322662,68.681023 388.332550,70.300980 388.960571,72.608109 
	C377.976349,72.993309 366.951935,73.027794 355.461426,73.002960 
z"/>
<path fill="#F4AA0E" opacity="1.000000" stroke="none" 
	d="
M172.468079,72.995270 
	C174.295715,68.702660 178.910446,67.963425 182.694885,66.346008 
	C207.868515,55.587109 234.271851,51.291721 261.516296,53.097137 
	C282.721100,54.502331 302.982971,60.100296 322.249390,69.137924 
	C323.705078,69.820778 325.469940,70.276978 325.949646,72.573524 
	C321.302521,72.969955 316.611023,73.020958 311.457214,73.003777 
	C297.207947,66.846832 282.715790,63.378441 267.817841,61.561691 
	C240.174179,58.190647 213.541702,62.506340 187.344681,72.660385 
	C182.315399,72.955254 177.623001,73.005516 172.468079,72.995270 
z"/>
<path fill="#F3A00A" opacity="1.000000" stroke="none" 
	d="
M187.470917,72.974304 
	C187.867935,70.001816 190.599899,69.749512 192.834579,68.938232 
	C214.429062,61.098488 236.782822,57.767265 259.646454,59.132408 
	C275.849701,60.099873 291.672882,63.667435 306.890808,69.515877 
	C308.372772,70.085411 310.114929,70.518181 310.933411,72.593361 
	C305.637238,72.983200 300.279510,73.030823 294.458344,73.007721 
	C282.537872,69.446426 270.790985,67.360008 258.875519,66.636856 
	C240.856674,65.543274 223.104614,67.569519 205.352203,72.688675 
	C199.314392,72.971786 193.624207,73.007698 187.470917,72.974304 
z"/>
<path fill="#F29706" opacity="1.000000" stroke="none" 
	d="
M205.469086,73.001472 
	C206.521027,69.720634 209.878616,69.856003 212.544373,69.159065 
	C228.055145,65.103905 243.926239,64.216370 259.832794,65.109001 
	C270.536224,65.709641 281.138763,67.578957 291.455078,70.710167 
	C292.383179,70.991859 293.458527,71.082230 293.921814,72.583092 
	C264.641113,72.980362 235.287369,73.023720 205.469086,73.001472 
z"/>
<path fill="#F7CE1D" opacity="1.000000" stroke="none" 
	d="
M169.843842,53.701118 
	C169.949463,56.535995 167.840668,57.098331 166.110947,57.930668 
	C159.582367,61.072186 153.507339,64.984299 147.365631,68.789299 
	C145.940765,69.672043 144.548828,70.506577 144.045013,72.604523 
	C138.313675,72.979454 132.622162,73.010963 126.465706,72.984444 
	C126.383278,70.149284 128.572266,68.730766 130.532639,67.308365 
	C139.091568,61.098152 147.741821,55.012131 157.288605,50.357288 
	C158.660751,49.688255 159.848877,48.845360 160.866943,47.268188 
	C164.732498,47.993423 166.439590,51.719269 169.843842,53.701118 
z"/>
<path fill="#F7B504" opacity="1.000000" stroke="none" 
	d="
M415.296234,27.084557 
	C415.685364,34.352386 415.726868,41.682549 415.643677,49.461521 
	C409.137421,46.261963 402.895081,42.406471 397.099182,37.344696 
	C398.361664,32.664581 402.064087,31.288322 405.980408,30.113379 
	C408.995117,29.208925 411.960999,28.141722 415.296234,27.084557 
z"/>
<path fill="#FACE13" opacity="1.000000" stroke="none" 
	d="
M207.533600,14.319714 
	C208.078568,17.638880 205.310379,17.494410 203.446548,17.878912 
	C187.458496,21.177195 172.244110,26.778337 157.610596,33.818172 
	C142.965729,40.863457 129.394409,49.734005 116.588737,59.791653 
	C113.410606,62.287777 111.005898,65.931976 106.397293,66.988235 
	C106.026215,59.304127 106.016701,51.618244 106.019196,43.463154 
	C110.091339,43.013012 112.440018,39.756348 115.233345,37.724041 
	C125.128105,30.524994 135.601212,24.360521 146.451218,18.775101 
	C148.027130,17.963852 149.959595,17.440331 149.973282,14.760703 
	C169.011215,14.354495 188.042343,14.291071 207.533600,14.319714 
z"/>
<path fill="#F7B504" opacity="1.000000" stroke="none" 
	d="
M86.560631,49.006161 
	C86.178337,41.979553 86.156456,34.961689 86.209488,27.481665 
	C89.913651,28.203266 93.493217,29.584385 97.186455,30.513912 
	C100.707039,31.399984 103.088921,33.335751 104.760910,36.813492 
	C99.736656,42.124657 93.725594,46.168816 86.560631,49.006161 
z"/>
<path fill="#F9DB1E" opacity="1.000000" stroke="none" 
	d="
M442.997375,247.534622 
	C412.330322,248.002441 381.665527,247.984497 351.000793,248.029236 
	C348.312866,248.033157 345.702667,247.813858 342.735046,247.031555 
	C348.667603,226.299057 361.795776,215.924454 383.285309,214.730042 
	C388.598236,214.434723 393.930511,214.443390 399.235626,214.059631 
	C412.124756,213.127304 415.623840,208.481308 413.210480,195.415771 
	C422.839813,195.004929 432.447937,195.003342 442.523773,195.004242 
	C442.994171,212.359665 442.996918,229.712631 442.997375,247.534622 
z"/>
<path fill="#C0AA28" opacity="1.000000" stroke="none" 
	d="
M325.467255,140.859711 
	C323.294037,149.799530 317.899780,157.023285 311.810425,163.540192 
	C293.393799,183.249969 270.301300,192.019699 243.604401,189.769241 
	C227.280655,188.393219 213.330902,180.374969 200.680832,170.189667 
	C192.288757,163.432755 185.360306,155.525970 181.086807,145.140594 
	C185.680237,144.070709 186.839157,148.697372 190.149384,150.595917 
	C191.499252,151.566589 192.342194,152.567871 193.335434,153.864410 
	C193.681076,154.266525 193.822647,154.424667 194.438324,155.017776 
	C195.261734,155.724182 195.610611,155.996140 196.231781,156.487488 
	C196.671951,156.875992 196.839554,157.045486 197.225098,157.504593 
	C210.661865,171.525177 226.887207,178.710754 245.837601,179.551071 
	C254.816330,179.949188 263.805054,179.775177 272.702393,177.904739 
	C288.768768,174.527176 302.094574,166.558533 313.261810,154.155594 
	C313.590790,153.651627 313.708160,153.443069 314.026733,152.942291 
	C314.642914,152.094604 315.093933,151.567230 315.679565,150.718475 
	C315.975464,150.238007 316.098938,150.049408 316.421753,149.588501 
	C319.209198,146.860336 321.110107,143.800934 323.934418,141.111954 
	C324.424774,140.830536 324.635895,140.744537 325.467255,140.859711 
z"/>
<path fill="#FFFEFB" opacity="1.000000" stroke="none" 
	d="
M325.123047,140.727264 
	C322.868011,144.239227 320.216125,147.028748 317.131226,149.846130 
	C316.688080,150.112183 316.559601,150.247833 316.152771,150.360657 
	C315.704315,150.265320 315.534210,150.192780 314.895142,149.837860 
	C313.953033,149.284973 313.466980,149.040558 312.709442,148.715073 
	C312.135193,148.393890 311.852936,148.145996 311.442139,147.623245 
	C311.100433,147.046173 310.926727,146.703018 310.615631,146.100128 
	C310.367218,145.673660 310.263519,145.503189 310.000061,145.073990 
	C309.628876,144.455750 309.450073,144.080505 309.210632,143.381332 
	C308.931396,142.161545 309.264801,141.349808 309.799316,140.282700 
	C311.577148,138.189041 313.145081,136.349136 314.962494,134.288498 
	C315.927704,133.680862 316.388397,133.080307 316.793091,132.064621 
	C318.222473,129.409485 319.527466,127.018410 321.018982,124.337029 
	C321.332825,123.914055 321.460144,123.781395 321.797180,123.827766 
	C322.006958,124.006805 321.999756,123.999657 321.995178,123.996918 
	C322.416656,124.439018 323.004761,124.501633 323.783081,124.832535 
	C324.012604,125.008232 324.000000,125.000000 323.993622,124.995972 
	C324.414398,125.436363 325.002411,125.501755 325.782532,125.832092 
	C326.012421,126.008011 326.000000,126.000000 325.993500,125.996292 
	C326.683685,126.740456 327.651459,126.404198 328.750305,126.813461 
	C329.018555,127.010345 329.002502,127.001190 328.994324,126.995224 
	C329.381195,128.330460 330.670746,128.705139 331.818115,129.676270 
	C331.353241,132.620987 329.380096,134.598694 328.057678,137.289429 
	C327.847809,137.974564 327.646545,138.306671 327.190125,138.820023 
	C326.990479,139.034897 327.026489,139.020493 327.027222,139.001129 
	C326.888611,139.119965 326.749268,139.258179 326.340881,139.500061 
	C325.596649,139.694412 324.973541,139.642181 325.123047,140.727264 
z"/>
<path fill="#FBFAF6" opacity="1.000000" stroke="none" 
	d="
M190.312866,151.601761 
	C187.270813,149.476242 184.529053,147.165802 181.443588,144.811615 
	C181.099899,144.767868 181.007660,144.871750 181.048401,144.928009 
	C180.555603,144.568756 180.525513,143.918091 180.142242,143.097717 
	C179.959869,142.848236 179.973907,142.441711 179.961166,142.238739 
	C180.023834,141.457092 180.371246,141.045578 180.996155,140.508484 
	C181.352997,140.240677 181.498505,140.139114 182.073792,139.734116 
	C182.642685,139.324997 182.781754,139.219315 183.130692,138.955994 
	C183.484573,138.698364 183.628586,138.598389 183.996338,138.358170 
	C184.371353,138.126373 184.522659,138.034851 184.901123,137.801056 
	C185.278580,137.557541 185.428894,137.456284 185.805359,137.194473 
	C186.187653,136.927917 186.343811,136.821899 186.751816,136.574280 
	C187.186569,136.362686 187.369492,136.292709 187.843201,136.161041 
	C188.962082,136.008652 189.709869,136.298569 190.684753,136.787811 
	C192.876465,138.735443 194.840881,140.484879 196.971115,142.515747 
	C196.360916,146.728912 192.386673,148.240067 190.312866,151.601761 
z"/>
<path fill="#FFFEFB" opacity="1.000000" stroke="none" 
	d="
M182.000336,140.857407 
	C181.329849,141.279907 180.880463,141.553192 180.189743,141.931107 
	C179.948425,142.035751 179.492813,141.966690 179.267273,141.919785 
	C177.365723,139.553986 175.689713,137.235077 173.932816,134.592529 
	C173.851929,134.268860 173.735336,133.804855 173.653030,133.579803 
	C173.570724,133.354752 173.630692,132.878235 173.753632,132.672607 
	C173.876556,132.466980 174.178757,132.098480 174.502136,131.753616 
	C174.825516,131.408752 175.152847,131.070694 175.483871,130.736389 
	C175.814896,130.402069 176.158264,130.079086 176.338287,129.926605 
	C176.518326,129.774139 176.900604,129.498138 177.100891,129.374542 
	C177.301163,129.250931 177.707108,129.014755 177.908691,128.893707 
	C178.110291,128.772644 178.505264,128.513397 178.698105,128.372742 
	C178.890945,128.232071 179.273926,127.936806 179.470703,127.790070 
	C179.667496,127.643341 180.083542,127.370323 180.302750,127.247475 
	C180.825470,126.972389 181.138184,126.841934 182.130951,126.888374 
	C184.787216,129.512817 186.771072,131.978531 188.907349,134.744339 
	C189.432312,136.454269 188.315292,136.366165 187.242767,136.796585 
	C186.978546,137.004623 187.002411,137.002029 187.006683,136.990814 
	C186.781464,137.208145 186.552292,137.437012 186.152100,137.838379 
	C185.980759,138.010559 186.002472,138.003815 186.007660,137.993668 
	C185.577728,138.418381 184.984421,138.473618 184.211212,138.820328 
	C183.984970,139.000610 184.001953,139.002625 184.003387,138.994186 
	C183.777863,139.211716 183.551224,139.438019 183.155304,139.834763 
	C182.985703,140.004868 183.002640,140.002716 183.003952,139.994293 
	C182.757751,140.241592 182.497162,140.483124 182.000336,140.857407 
z"/>
<path fill="#C0AA28" opacity="1.000000" stroke="none" 
	d="
M179.999084,143.169556 
	C180.370667,143.343918 180.781479,143.839600 181.140717,144.659790 
	C180.738876,144.486481 180.388580,143.988693 179.999084,143.169556 
z"/>
<path fill="#C0AA28" opacity="1.000000" stroke="none" 
	d="
M325.932770,139.282532 
	C326.243622,139.121979 326.642029,139.087524 326.834961,139.034637 
	C326.876373,139.555862 326.724854,140.129990 326.330383,140.882477 
	C326.087463,141.060867 325.934082,140.928436 325.859650,140.859695 
	C325.576508,140.360352 325.522125,139.911057 325.932770,139.282532 
z"/>
<path fill="#C0AA28" opacity="1.000000" stroke="none" 
	d="
M327.252991,138.879776 
	C327.159485,138.678040 327.328522,138.321182 327.745544,137.786591 
	C327.834229,137.980774 327.674866,138.352707 327.252991,138.879776 
z"/>
<path fill="#2C87CD" opacity="1.000000" stroke="none" 
	d="
M268.520782,289.009552 
	C268.426300,289.309204 267.863586,289.887848 267.302612,289.886169 
	C252.756210,289.843079 238.205002,290.443604 223.367279,289.338440 
	C238.064850,289.046814 253.059113,289.032471 268.520782,289.009552 
z"/>
<path fill="#2C87CD" opacity="1.000000" stroke="none" 
	d="
M394.482605,167.032059 
	C388.901855,168.953827 382.767212,167.899292 376.360840,167.328583 
	C382.050415,167.039001 388.035370,167.029724 394.482605,167.032059 
z"/>
<path fill="#FFFEFB" opacity="1.000000" stroke="none" 
	d="
M226.846497,157.742004 
	C233.907455,158.819946 240.532104,159.806915 247.557434,160.885895 
	C248.049179,161.190979 248.140213,161.404053 248.040665,161.905701 
	C247.223221,164.380997 246.831329,166.587906 247.201706,168.130341 
	C246.715591,166.937958 247.433090,165.065002 247.577560,162.823242 
	C247.904160,162.109253 248.201569,161.755859 248.780853,161.189240 
	C253.056915,160.703262 257.073578,160.449432 261.501709,160.241486 
	C264.216217,163.792526 263.644196,167.737671 263.406616,171.987885 
	C261.022583,174.258026 258.371552,174.477280 255.716949,174.556717 
	C248.931061,174.759766 242.203293,174.272552 235.261139,172.360077 
	C233.997833,169.640594 234.621979,167.289627 235.407608,164.570068 
	C235.598343,163.720581 235.790649,163.284164 236.095383,162.895981 
	C236.330521,162.596420 236.428650,162.265167 236.251724,162.081970 
	C235.808807,161.623322 235.794815,161.626556 236.223190,162.077744 
	C236.409256,162.273712 236.319534,162.583115 235.865509,163.192337 
	C234.835037,165.927795 234.476074,168.445206 233.956924,171.277863 
	C230.118164,172.633255 226.921951,171.776138 223.670807,169.413025 
	C222.415573,164.734238 223.111206,160.849457 226.846497,157.742004 
z"/>
<path fill="#FFFEFB" opacity="1.000000" stroke="none" 
	d="
M163.186768,108.416977 
	C166.834290,107.352135 170.426712,106.674362 174.415009,105.981125 
	C176.164474,112.765152 178.168686,119.327896 181.929932,125.622658 
	C182.143600,126.138779 182.268234,126.315872 182.193466,126.749397 
	C181.994080,127.005829 182.000183,126.999855 182.003983,126.997406 
	C181.570740,127.423859 180.977188,127.473412 180.210083,127.826462 
	C179.986450,128.008530 180.000153,127.999458 180.005951,127.993683 
	C179.779739,128.210434 179.550858,128.436157 179.157104,128.838013 
	C178.989136,129.010971 178.999893,129.000290 179.006195,128.996140 
	C178.573303,129.421921 177.977570,129.473465 177.207016,129.828491 
	C176.982162,130.011078 176.999908,129.999008 177.007553,129.991455 
	C176.782074,130.208069 176.551926,130.435242 176.155533,130.839203 
	C175.986343,131.013000 176.000000,131.000000 176.006500,130.993118 
	C175.780136,131.209976 175.550308,131.436783 175.154602,131.840164 
	C174.985703,132.013702 175.000000,132.000000 175.006836,131.992798 
	C174.780594,132.209549 174.550537,132.436569 174.154388,132.840363 
	C173.985306,133.014084 173.997742,133.002151 174.003799,132.996155 
	C173.839020,133.124680 173.668182,133.259201 173.225525,133.213501 
	C170.371002,129.967590 168.738449,126.375443 167.245590,122.359619 
	C167.553986,121.893547 167.677032,121.743057 167.626678,121.555489 
	C167.571320,121.349388 167.502365,121.246262 167.157196,121.151962 
	C164.588715,117.296219 163.967834,113.017082 163.186768,108.416977 
z"/>
<path fill="#FBFAF6" opacity="1.000000" stroke="none" 
	d="
M311.849670,146.905090 
	C312.128723,147.405090 312.287109,147.612564 312.672180,147.876129 
	C313.328552,148.389984 313.933594,148.500931 314.774170,148.820984 
	C315.020020,149.003922 314.997681,149.002655 314.993958,148.992126 
	C315.230316,149.247421 315.490479,149.491852 316.002777,149.849548 
	C316.234650,149.984375 316.525848,149.973053 316.671204,149.974792 
	C316.816559,149.976547 316.903320,150.251846 316.916443,150.395569 
	C316.628082,151.378601 315.707458,151.716568 315.078796,152.689407 
	C314.817688,152.876419 314.861969,152.796051 314.818695,152.780792 
	C311.704681,156.457916 308.136719,159.395096 302.914032,160.183823 
	C300.205933,156.893234 298.129700,153.656326 298.717163,149.142426 
	C302.413849,145.975220 305.908264,143.139420 309.705933,140.166275 
	C310.008087,141.030991 310.006958,142.033051 309.998840,143.410889 
	C310.180511,144.089981 310.393280,144.375397 310.824524,144.826569 
	C311.019012,145.010239 310.997559,145.002228 310.996582,144.990845 
	C311.446228,145.446976 311.475861,146.084900 311.849670,146.905090 
z"/>
<path fill="#FBFAF6" opacity="1.000000" stroke="none" 
	d="
M274.686768,158.635574 
	C279.078308,156.976883 283.176910,155.631149 287.634705,154.228424 
	C289.845917,156.272812 289.550385,159.087753 290.552368,161.860565 
	C290.732849,162.452881 290.793701,162.695953 290.908386,163.316437 
	C291.006195,164.484024 290.882507,165.246628 290.374359,166.320938 
	C286.317810,169.426956 282.039154,170.756180 276.927490,170.344177 
	C274.044495,166.758362 272.845306,163.119232 274.686768,158.635574 
z"/>
<path fill="#FEFDF9" opacity="1.000000" stroke="none" 
	d="
M204.793304,148.267059 
	C208.532867,149.877869 212.070038,151.634537 216.060394,154.144653 
	C216.437500,155.277115 216.323441,155.644318 216.050674,156.259613 
	C215.838150,156.685623 215.745987,156.851608 215.500504,157.254730 
	C215.241257,157.645767 215.135330,157.799652 214.744492,158.430603 
	C214.304749,159.247513 214.162003,159.592331 213.947937,160.219818 
	C213.801147,160.683929 213.739105,160.870895 213.575958,161.339890 
	C213.264328,162.203964 213.038254,162.779922 212.641068,163.639511 
	C212.327652,164.088684 212.172043,164.249023 211.711731,164.560730 
	C211.182892,164.761551 210.958771,164.811005 210.387619,164.868195 
	C205.655182,163.354172 201.293686,161.787766 197.805908,158.069122 
	C197.683060,157.317169 197.802444,156.924973 198.330322,156.407364 
	C198.873871,156.009842 199.188751,155.802567 199.705963,155.429871 
	C200.029633,155.143051 200.153397,155.025345 200.451385,154.726257 
	C200.625641,154.544876 200.962067,154.177612 201.278107,153.796585 
	C201.785522,153.139923 201.969788,152.859589 202.285400,152.353882 
	C202.533005,151.996887 202.643600,151.861511 202.953323,151.560120 
	C203.292297,151.299042 203.432159,151.203979 203.776917,150.975006 
	C203.981812,150.841095 204.358765,150.571838 204.508942,150.413330 
	C204.659134,150.254822 204.601517,149.804947 204.525299,149.581390 
	C204.375778,149.024887 204.423065,148.709900 204.793304,148.267059 
z"/>
<path fill="#FFFEFB" opacity="1.000000" stroke="none" 
	d="
M274.588776,158.294037 
	C274.638947,162.074173 275.412903,165.628815 276.934448,169.430756 
	C273.425842,173.227631 269.048035,173.177109 264.205231,172.445328 
	C263.160950,168.466110 262.045380,164.788284 262.818604,160.558685 
	C266.773041,159.549545 270.485474,158.907486 274.588776,158.294037 
z"/>
<path fill="#FFFEFB" opacity="1.000000" stroke="none" 
	d="
M298.571350,148.883041 
	C299.537537,152.537811 301.544098,155.732788 302.932312,159.535416 
	C301.393097,164.720856 296.831329,164.619110 292.694580,165.836823 
	C291.137390,165.538315 290.557922,164.772751 290.220215,163.297089 
	C289.997253,162.981216 289.996460,163.001831 290.005432,163.006912 
	C289.408966,160.164566 288.649109,157.328461 289.536072,153.918457 
	C292.534882,151.954346 295.379059,150.454697 298.571350,148.883041 
z"/>
<path fill="#FBFAF6" opacity="1.000000" stroke="none" 
	d="
M226.998657,157.600922 
	C224.804565,160.795212 224.699783,164.516251 224.014771,168.450592 
	C219.508453,170.534134 216.032288,167.888412 212.110046,165.766281 
	C211.784424,165.199524 211.706146,164.945465 211.815521,164.339554 
	C212.003143,163.987701 212.001114,164.002945 211.994431,164.006897 
	C212.742142,163.318451 212.404358,162.350891 212.809601,161.252045 
	C213.004333,160.982635 213.002121,161.001221 212.994629,161.006775 
	C213.742371,160.318527 213.403900,159.348984 213.811340,158.248596 
	C214.006760,157.978943 214.001007,158.001358 213.990952,158.007111 
	C214.216766,157.792587 214.447510,157.567062 214.840240,157.161224 
	C215.007324,156.986145 215.002274,157.001724 214.995041,157.005463 
	C215.438934,156.584702 215.501526,155.993866 215.832703,155.211456 
	C216.007187,154.979599 216.003326,154.998688 215.994446,155.002594 
	C216.421356,154.619293 216.926773,154.473724 217.899673,154.676453 
	C221.103210,155.645081 223.908844,156.506989 226.998657,157.600922 
z"/>
<path fill="#FFFEFB" opacity="1.000000" stroke="none" 
	d="
M204.739502,147.897461 
	C204.993805,148.515274 204.991928,148.909317 204.984955,149.598907 
	C205.102936,150.080170 205.226013,150.265869 205.168365,150.732697 
	C204.987671,151.013794 205.001709,151.001251 205.008316,150.994568 
	C204.576172,151.419495 203.980789,151.473572 203.208008,151.826111 
	C202.982376,152.008209 203.000061,152.000000 203.004120,151.991119 
	C202.565842,152.412628 202.498123,153.001602 202.165771,153.783508 
	C201.988663,154.013504 202.001694,154.000778 202.006714,153.993134 
	C201.779968,154.210052 201.550598,154.436996 201.154190,154.839188 
	C200.984772,155.012009 201.000427,155.000900 201.004120,154.992050 
	C200.537079,155.428284 200.502380,156.078949 200.001984,156.818512 
	C199.295822,157.038651 198.823685,157.060669 197.999695,157.126480 
	C197.282944,157.414642 196.884674,157.496429 196.230942,157.188248 
	C196.008850,156.960876 195.997742,157.002975 196.018127,156.995331 
	C195.585281,156.565979 194.980331,156.499359 194.249130,156.068573 
	C194.066605,155.836121 194.046738,155.917374 194.088531,155.915588 
	C193.834015,155.757202 193.558838,155.569962 193.093445,155.218216 
	C192.055176,154.156097 191.231750,153.222748 190.210464,152.038040 
	C190.751282,147.776855 193.773132,145.597092 196.943436,143.089188 
	C199.585724,144.422699 202.034515,146.048203 204.739502,147.897461 
z"/>
<path fill="#DFDFDC" opacity="1.000000" stroke="none" 
	d="
M262.769440,160.163605 
	C262.461761,163.881271 263.919617,167.383774 264.059601,171.424408 
	C263.899811,171.972031 263.725403,172.102798 263.262268,172.080170 
	C262.287354,168.363861 261.716492,164.789963 261.928650,160.713623 
	C262.101532,160.236801 262.289886,160.186203 262.769440,160.163605 
z"/>
<path fill="#DFDFDC" opacity="1.000000" stroke="none" 
	d="
M289.397888,153.549286 
	C289.804779,156.329498 289.918884,159.205017 290.023682,162.546265 
	C288.429504,160.559586 288.054596,157.805420 288.001251,154.570328 
	C288.364319,153.995819 288.734741,153.820206 289.397888,153.549286 
z"/>
<path fill="#DFDFDC" opacity="1.000000" stroke="none" 
	d="
M325.609131,111.096046 
	C326.974945,111.003174 327.992737,111.416039 328.872772,112.704155 
	C327.979034,112.814224 326.944458,112.615921 325.625122,112.275192 
	C325.235138,111.822342 325.267059,111.526718 325.609131,111.096046 
z"/>
<path fill="#DFDFDC" opacity="1.000000" stroke="none" 
	d="
M187.372818,137.013382 
	C187.557114,136.506378 188.135696,136.008148 188.887024,135.277176 
	C189.612488,135.518524 190.165192,135.992630 190.814987,136.726379 
	C189.863739,136.998062 188.815414,137.010101 187.372818,137.013382 
z"/>
<path fill="#FBFAF6" opacity="1.000000" stroke="none" 
	d="
M316.666016,131.950027 
	C316.656677,132.684265 317.909698,134.291077 315.476501,134.165649 
	C315.612823,133.411667 316.013672,132.755585 316.666016,131.950027 
z"/>
<path fill="#DFDFDC" opacity="1.000000" stroke="none" 
	d="
M218.084137,154.555984 
	C217.785309,154.856400 217.273056,154.929611 216.373169,155.004669 
	C215.996613,154.819885 216.007690,154.633270 216.048035,154.167542 
	C216.675110,154.035217 217.272919,154.182007 218.084137,154.555984 
z"/>
<path fill="#DFDFDC" opacity="1.000000" stroke="none" 
	d="
M182.196014,127.023682 
	C181.984039,126.831497 181.973999,126.657166 181.991455,126.222260 
	C182.341599,126.066544 182.580475,126.269798 182.769470,126.809280 
	C182.803345,127.047104 182.397949,127.041542 182.196014,127.023682 
z"/>
<path fill="#DFDFDC" opacity="1.000000" stroke="none" 
	d="
M248.169312,161.969269 
	C247.896194,161.895401 247.907364,161.711838 247.938324,161.253082 
	C248.137650,160.938873 248.317154,160.899841 248.768463,160.908966 
	C248.844696,161.257919 248.649139,161.558746 248.169312,161.969269 
z"/>
<path fill="#DFDFDC" opacity="1.000000" stroke="none" 
	d="
M322.013824,123.720825 
	C322.006958,124.006805 321.606384,124.036819 321.405945,124.041771 
	C321.150238,123.691582 321.252411,123.389732 321.718872,123.005905 
	C321.957367,123.058708 321.989044,123.246773 322.013824,123.720825 
z"/>
<path fill="#FEFDF9" opacity="1.000000" stroke="none" 
	d="
M166.943832,121.310944 
	C167.758499,120.899521 168.795425,119.599281 169.415146,120.813240 
	C169.906189,121.775131 168.636642,121.878319 167.563705,121.999039 
	C167.168762,121.859489 167.080643,121.711845 166.943832,121.310944 
z"/>
<path fill="#DFDFDC" opacity="1.000000" stroke="none" 
	d="
M173.018982,133.292297 
	C173.129547,133.023026 173.305420,133.012772 173.745575,132.996338 
	C174.002625,133.204971 173.995392,133.419785 173.920044,133.951721 
	C173.596054,134.029678 173.340164,133.790497 173.018982,133.292297 
z"/>
<path fill="#DFDFDC" opacity="1.000000" stroke="none" 
	d="
M329.219971,113.264557 
	C330.168365,113.151604 331.354340,113.310188 332.778320,113.739937 
	C331.830078,113.852760 330.643799,113.694427 329.219971,113.264557 
z"/>
<path fill="#DFDFDC" opacity="1.000000" stroke="none" 
	d="
M333.178864,114.269020 
	C333.851837,114.156708 334.721832,114.321594 335.803345,114.748627 
	C335.135223,114.855927 334.255554,114.701073 333.178864,114.269020 
z"/>
<path fill="#DFDFDC" opacity="1.000000" stroke="none" 
	d="
M328.805725,126.749191 
	C328.141541,126.853584 327.264557,126.696831 326.187256,126.266327 
	C326.855621,126.157738 327.724274,126.322884 328.805725,126.749191 
z"/>
<path fill="#DFDFDC" opacity="1.000000" stroke="none" 
	d="
M323.853821,124.749786 
	C323.450104,124.837090 322.887573,124.665939 322.157837,124.244492 
	C322.558746,124.159897 323.126892,124.325615 323.853821,124.749786 
z"/>
<path fill="#DFDFDC" opacity="1.000000" stroke="none" 
	d="
M325.852051,125.750412 
	C325.445038,125.840294 324.877686,125.672577 324.148773,125.248398 
	C324.555389,125.158897 325.123535,125.325859 325.852051,125.750412 
z"/>
<path fill="#DFDFDC" opacity="1.000000" stroke="none" 
	d="
M162.863312,95.214279 
	C166.316513,94.987518 169.679291,94.991379 173.496460,95.009369 
	C170.704437,97.035812 167.127548,95.525452 163.267380,95.960747 
	C162.799591,95.939606 162.772888,95.444893 162.863312,95.214279 
z"/>
<path fill="#0E6AB3" opacity="1.000000" stroke="none" 
	d="
M335.025574,284.267944 
	C344.988342,283.900330 354.877899,283.942139 364.767273,283.917511 
	C369.171234,283.906525 372.855743,285.206665 375.392273,289.485229 
	C373.896362,291.077789 371.999603,290.451141 370.238525,290.455078 
	C358.457275,290.481354 346.675568,290.566986 334.446747,290.211243 
	C333.813263,288.122192 334.289185,286.369598 335.025574,284.267944 
z"/>
<path fill="#2C87CD" opacity="1.000000" stroke="none" 
	d="
M334.297729,290.284851 
	C347.507477,289.971344 361.015839,289.949829 375.026733,289.874512 
	C375.819916,289.984436 375.978088,290.232574 375.968628,290.790466 
	C362.156158,290.704163 348.366669,291.539764 334.297729,290.284851 
z"/>
<path fill="#BFA828" opacity="1.000000" stroke="none" 
	d="
M170.384109,53.983414 
	C166.019608,53.296379 163.595123,50.574013 161.279251,47.171078 
	C161.005173,46.517128 160.989212,46.074120 160.945007,45.299454 
	C160.436020,44.276432 160.514694,43.495926 160.739227,42.375999 
	C161.275375,37.765343 163.330383,34.741428 167.688324,34.128105 
	C171.818314,33.546864 175.994232,33.526882 178.792694,37.625916 
	C181.790176,42.016479 181.537338,46.233536 178.126678,50.676735 
	C175.578766,52.046238 173.485275,53.782448 170.384109,53.983414 
z"/>
<path fill="#BFA828" opacity="1.000000" stroke="none" 
	d="
M339.890839,38.702507 
	C342.539429,47.153259 339.637421,51.819977 330.379517,53.969242 
	C325.502167,52.531746 321.911011,50.075302 321.083344,45.055634 
	C320.187531,39.622837 323.029633,35.896797 329.640991,33.879631 
	C330.466064,33.835533 330.921143,33.856808 331.717468,33.850697 
	C332.479340,33.603214 332.925690,33.518738 333.692535,33.755711 
	C336.261322,34.967876 338.261993,36.343895 339.890839,38.702507 
z"/>
<path fill="#F7CE1D" opacity="1.000000" stroke="none" 
	d="
M160.691803,42.218815 
	C160.936188,42.765774 160.952652,43.500488 160.942932,44.601501 
	C159.985657,44.251999 159.852600,43.395096 160.691803,42.218815 
z"/>
<path fill="#F8CF1B" opacity="1.000000" stroke="none" 
	d="
M333.845581,33.737328 
	C333.556488,33.938267 333.125580,33.934483 332.376709,33.877003 
	C332.513153,33.195091 333.039642,32.974464 333.845581,33.737328 
z"/>
<path fill="#F8DF28" opacity="1.000000" stroke="none" 
	d="
M262.567932,172.029526 
	C263.159393,171.946609 263.345306,171.966446 263.802734,171.913773 
	C268.216370,171.890839 272.202148,170.882965 276.602722,169.923264 
	C281.292938,169.233292 285.384949,167.906113 289.738953,166.187881 
	C290.429291,165.441254 291.013794,165.402069 291.873352,165.267273 
	C295.897552,164.219116 299.226105,162.350754 302.748047,160.151566 
	C307.139618,158.241180 310.398682,155.173904 314.432159,152.773087 
	C315.243347,154.570770 313.883728,155.478714 312.896118,156.555344 
	C297.906891,172.895706 279.055389,180.299362 257.150360,181.073334 
	C243.353973,181.560791 229.959900,180.303024 217.465942,173.961823 
	C209.339249,169.837173 201.283371,165.544785 195.991821,157.314987 
	C196.372726,157.004440 196.736588,157.048004 197.374146,157.130920 
	C201.350800,160.262558 205.755219,162.086823 210.433777,164.102417 
	C211.108093,164.204788 211.398132,164.331284 211.847626,164.676514 
	C215.597916,166.675171 219.423584,167.787659 223.637970,168.856735 
	C226.905701,170.228958 230.033707,170.638443 233.557983,171.036682 
	C234.161316,170.825027 234.362213,170.649994 234.751495,170.827484 
	C243.962814,172.962067 253.033997,173.364746 262.567932,172.029526 
z"/>
<path fill="#FBFAF6" opacity="1.000000" stroke="none" 
	d="
M325.937500,138.988113 
	C326.121429,139.487839 325.999237,139.853699 325.831116,140.505249 
	C325.785217,140.790955 325.386963,140.876205 325.192566,140.936996 
	C324.697906,139.807083 322.178558,139.971649 323.051880,138.353363 
	C323.512329,137.500031 324.776398,138.479248 325.937500,138.988113 
z"/>
<path fill="#F8DF28" opacity="1.000000" stroke="none" 
	d="
M315.155884,152.814575 
	C314.735779,151.776047 315.570923,151.336853 316.614594,150.680115 
	C316.866180,151.546341 316.360931,152.266785 315.155884,152.814575 
z"/>
<path fill="#F8DF28" opacity="1.000000" stroke="none" 
	d="
M194.176910,156.139526 
	C194.637924,156.028931 195.209229,156.221725 195.909531,156.701096 
	C195.454758,156.806091 194.870987,156.624527 194.176910,156.139526 
z"/>
<path fill="#F8DF28" opacity="1.000000" stroke="none" 
	d="
M193.030228,155.305542 
	C193.257141,155.161957 193.635666,155.234497 194.072266,155.610413 
	C193.814163,155.783066 193.498001,155.652359 193.030228,155.305542 
z"/>
<path fill="#FBFAF6" opacity="1.000000" stroke="none" 
	d="
M318.541382,136.374863 
	C318.312195,135.579605 318.591766,135.297562 319.206268,135.420807 
	C319.334656,135.446548 319.507507,135.625763 319.527252,135.754547 
	C319.622375,136.375702 319.322296,136.636795 318.541382,136.374863 
z"/>
<path fill="#DFDFDC" opacity="1.000000" stroke="none" 
	d="
M314.835999,148.743942 
	C314.433716,148.820755 313.847412,148.637573 313.052307,148.214417 
	C313.446350,148.144272 314.049164,148.314117 314.835999,148.743942 
z"/>
<path fill="#DFDFDC" opacity="1.000000" stroke="none" 
	d="
M312.019897,146.831558 
	C311.693665,146.639847 311.361725,146.124313 311.012665,145.294098 
	C311.335114,145.488876 311.674622,145.998291 312.019897,146.831558 
z"/>
<path fill="#DFDFDC" opacity="1.000000" stroke="none" 
	d="
M316.060974,149.775436 
	C315.903381,149.818390 315.572144,149.652420 315.115540,149.234009 
	C315.289246,149.176544 315.588287,149.371521 316.060974,149.775436 
z"/>
<path fill="#DFDFDC" opacity="1.000000" stroke="none" 
	d="
M310.905945,144.763855 
	C310.733063,144.783463 310.447113,144.556686 310.076477,144.058289 
	C310.258820,144.030258 310.525818,144.273849 310.905945,144.763855 
z"/>
<path fill="#DFDFDC" opacity="1.000000" stroke="none" 
	d="
M184.285767,138.980865 
	C184.457230,138.669769 184.929504,138.338928 185.707306,137.995804 
	C185.537430,138.309387 185.061996,138.635269 184.285767,138.980865 
z"/>
<path fill="#DFDFDC" opacity="1.000000" stroke="none" 
	d="
M186.213501,137.906113 
	C186.167664,137.735184 186.354568,137.459793 186.776230,137.082016 
	C186.822723,137.253632 186.634476,137.527649 186.213501,137.906113 
z"/>
<path fill="#DFDFDC" opacity="1.000000" stroke="none" 
	d="
M182.048401,140.923279 
	C182.020111,140.735107 182.260971,140.463593 182.753540,140.088959 
	C182.776016,140.270538 182.546768,140.555222 182.048401,140.923279 
z"/>
<path fill="#DFDFDC" opacity="1.000000" stroke="none" 
	d="
M183.214600,139.901642 
	C183.168411,139.728333 183.351120,139.451813 183.769318,139.080521 
	C183.817719,139.256638 183.630600,139.527527 183.214600,139.901642 
z"/>
<path fill="#DFDFDC" opacity="1.000000" stroke="none" 
	d="
M180.290253,127.999573 
	C180.457886,127.677040 180.929321,127.345551 181.704285,127.004517 
	C181.536545,127.326859 181.065292,127.658737 180.290253,127.999573 
z"/>
<path fill="#DFDFDC" opacity="1.000000" stroke="none" 
	d="
M177.288223,130.003448 
	C177.456604,129.678574 177.931046,129.346085 178.708984,129.002792 
	C178.539749,129.326599 178.067017,129.661209 177.288223,130.003448 
z"/>
<path fill="#DFDFDC" opacity="1.000000" stroke="none" 
	d="
M175.222870,131.917755 
	C175.176346,131.743240 175.366989,131.472778 175.785324,131.094284 
	C175.828674,131.264755 175.644363,131.543274 175.222870,131.917755 
z"/>
<path fill="#DFDFDC" opacity="1.000000" stroke="none" 
	d="
M176.224243,130.917572 
	C176.177582,130.742584 176.368820,130.472168 176.787628,130.092834 
	C176.830841,130.263306 176.646500,130.542725 176.224243,130.917572 
z"/>
<path fill="#DFDFDC" opacity="1.000000" stroke="none" 
	d="
M179.223083,128.911758 
	C179.174789,128.737000 179.360443,128.463028 179.778915,128.088486 
	C179.826828,128.262772 179.641922,128.537659 179.223083,128.911758 
z"/>
<path fill="#DFDFDC" opacity="1.000000" stroke="none" 
	d="
M174.222321,132.917679 
	C174.176132,132.743332 174.366974,132.472580 174.785736,132.093719 
	C174.828918,132.264160 174.644150,132.542709 174.222321,132.917679 
z"/>
<path fill="#FFF3C5" opacity="1.000000" stroke="none" 
	d="
M247.971069,162.096664 
	C247.983643,165.048615 247.983643,167.964905 247.983643,171.676544 
	C246.039566,168.140045 245.930756,165.364761 247.634247,162.310669 
	C247.885040,162.078949 247.958511,162.061005 247.971069,162.096664 
z"/>
<path fill="#DFDFDC" opacity="1.000000" stroke="none" 
	d="
M234.967163,170.760376 
	C234.771255,171.180023 234.602615,171.180054 234.197205,171.090088 
	C234.011765,168.397522 233.651443,165.717499 235.707062,163.226227 
	C235.684586,165.460983 235.339523,167.900879 234.967163,170.760376 
z"/>
<path fill="#DFDFDC" opacity="1.000000" stroke="none" 
	d="
M235.982025,162.981934 
	C236.105042,162.533112 236.242935,162.098633 236.380829,161.664154 
	C237.062149,161.993011 236.731323,162.381195 236.237579,162.893921 
	C236.029663,163.021103 235.996902,162.996246 235.982025,162.981934 
z"/>
<path fill="#FEFDF9" opacity="1.000000" stroke="none" 
	d="
M171.454056,119.528351 
	C171.424438,119.477287 171.483673,119.579407 171.454056,119.528351 
z"/>
<path fill="#DFDFDC" opacity="1.000000" stroke="none" 
	d="
M291.902161,164.991440 
	C291.649414,165.452194 291.146790,165.723877 290.348694,165.991577 
	C290.031311,165.236328 290.009369,164.485046 289.992310,163.357483 
	C290.548950,163.588257 291.100647,164.195297 291.902161,164.991440 
z"/>
<path fill="#DFDFDC" opacity="1.000000" stroke="none" 
	d="
M213.748489,158.194519 
	C213.846207,158.853333 213.685654,159.727722 213.256119,160.807220 
	C213.154831,160.144913 213.322525,159.277496 213.748489,158.194519 
z"/>
<path fill="#DFDFDC" opacity="1.000000" stroke="none" 
	d="
M212.735626,161.186829 
	C212.842453,161.853760 212.680573,162.724869 212.253220,163.803436 
	C212.147476,163.137589 212.307205,162.264313 212.735626,161.186829 
z"/>
<path fill="#DFDFDC" opacity="1.000000" stroke="none" 
	d="
M203.287048,152.001038 
	C203.457016,151.674942 203.931641,151.341675 204.710602,150.998138 
	C204.540527,151.323212 204.066116,151.658539 203.287048,152.001038 
z"/>
<path fill="#DFDFDC" opacity="1.000000" stroke="none" 
	d="
M202.241867,153.846191 
	C202.161072,153.449051 202.333481,152.884613 202.757050,152.151215 
	C202.837143,152.547791 202.666107,153.113327 202.241867,153.846191 
z"/>
<path fill="#DFDFDC" opacity="1.000000" stroke="none" 
	d="
M200.068298,156.885223 
	C200.010910,156.453445 200.253876,155.890259 200.752335,155.155136 
	C200.794769,155.573395 200.581726,156.163605 200.068298,156.885223 
z"/>
<path fill="#DFDFDC" opacity="1.000000" stroke="none" 
	d="
M215.758850,155.151062 
	C215.837753,155.546997 215.668320,156.114395 215.243347,156.845505 
	C215.162048,156.446991 215.336288,155.884766 215.758850,155.151062 
z"/>
<path fill="#DFDFDC" opacity="1.000000" stroke="none" 
	d="
M205.169250,150.916916 
	C204.976028,150.827682 204.964371,150.641556 204.966293,150.174957 
	C205.317062,150.117386 205.753906,150.300400 205.169250,150.916916 
z"/>
<path fill="#DFDFDC" opacity="1.000000" stroke="none" 
	d="
M201.220367,154.915619 
	C201.169922,154.733963 201.355072,154.455917 201.775970,154.081696 
	C201.826477,154.263412 201.641220,154.541321 201.220367,154.915619 
z"/>
<path fill="#DFDFDC" opacity="1.000000" stroke="none" 
	d="
M214.775742,157.087662 
	C214.821198,157.262466 214.635056,157.538773 214.214905,157.913971 
	C214.168640,157.738312 214.356400,157.463745 214.775742,157.087662 
z"/>
<path fill="#DFDFDC" opacity="1.000000" stroke="none" 
	d="
M212.032990,164.610260 
	C211.720474,164.736313 211.400101,164.654770 210.932022,164.364456 
	C210.985168,164.111206 211.186035,164.066742 211.695007,164.004974 
	C212.003143,163.987701 212.025146,164.402649 212.032990,164.610260 
z"/>
</svg>