<svg xmlns="http://www.w3.org/2000/svg" xmlns:xlink="http://www.w3.org/1999/xlink" version="1.1" width="1000" height="1000" viewBox="0 0 1000 1000" xml:space="preserve">
<desc>Created with Fabric.js 3.5.0</desc>
<defs>
</defs>
<rect x="0" y="0" width="100%" height="100%" fill="#ffffff"/>
<g transform="matrix(0.28 0 0 0.28 483.3333 644.4444)" id="800568">
<g style="" vector-effect="non-scaling-stroke">
		<g transform="matrix(9.6165 0 0 9.6165 47.8272 888.6639)">
<path style="stroke: none; stroke-width: 1; stroke-dasharray: none; stroke-linecap: butt; stroke-dashoffset: 0; stroke-linejoin: miter; stroke-miterlimit: 4; is-custom-font: none; font-file-url: none; fill: rgb(255,153,0); fill-rule: nonzero; opacity: 1;" transform=" translate(-128.1943, -222.8326)" d="m 221.503 210.324 c -105.235 50.083 -170.545 8.18 -212.352 -17.271 c -2.587 -1.604 -6.984 0.375 -3.169 4.757 c 13.928 16.888 59.573 57.593 119.153 57.593 c 59.621 0 95.09 -32.532 99.527 -38.207 c 4.407 -5.627 1.294 -8.731 -3.16 -6.872 z m 29.555 -16.322 c -2.826 -3.68 -17.184 -4.366 -26.22 -3.256 c -9.05 1.078 -22.634 6.609 -21.453 9.93 c 0.606 1.244 1.843 0.686 8.06 0.127 c 6.234 -0.622 23.698 -2.826 27.337 1.931 c 3.656 4.79 -5.57 27.608 -7.255 31.288 c -1.628 3.68 0.622 4.629 3.68 2.178 c 3.016 -2.45 8.476 -8.795 12.14 -17.774 c 3.639 -9.028 5.858 -21.622 3.71 -24.424 z" stroke-linecap="round"/>
</g>
		<g transform="matrix(9.6165 0 0 9.6165 84.2454 -323.1906)">
<path style="stroke: none; stroke-width: 1; stroke-dasharray: none; stroke-linecap: butt; stroke-dashoffset: 0; stroke-linejoin: miter; stroke-miterlimit: 4; is-custom-font: none; font-file-url: none; fill: rgb(0,0,0); fill-rule: evenodd; opacity: 1;" transform=" translate(-131.9812, -96.815)" d="m 150.744 108.13 c 0 13.141 0.332 24.1 -6.31 35.77 c -5.361 9.489 -13.853 15.324 -23.341 15.324 c -12.952 0 -20.495 -9.868 -20.495 -24.432 c 0 -28.75 25.76 -33.968 50.146 -33.968 z m 34.015 82.216 c -2.23 1.992 -5.456 2.135 -7.97 0.806 c -11.196 -9.298 -13.189 -13.615 -19.356 -22.487 c -18.502 18.882 -31.596 24.527 -55.601 24.527 c -28.37 0 -50.478 -17.506 -50.478 -52.565 c 0 -27.373 14.85 -46.018 35.96 -55.126 c 18.313 -8.066 43.884 -9.489 63.43 -11.718 v -4.365 c 0 -8.018 0.616 -17.506 -4.08 -24.432 c -4.128 -6.215 -12.003 -8.777 -18.93 -8.777 c -12.856 0 -24.337 6.594 -27.136 20.257 c -0.57 3.037 -2.799 6.026 -5.835 6.168 l -32.735 -3.51 c -2.751 -0.618 -5.787 -2.847 -5.028 -7.07 c 7.543 -39.66 43.36 -51.616 75.43 -51.616 c 16.415 0 37.858 4.365 50.81 16.795 c 16.415 15.323 14.849 35.77 14.849 58.02 v 52.565 c 0 15.798 6.547 22.724 12.714 31.264 c 2.182 3.036 2.657 6.69 -0.095 8.966 c -6.879 5.74 -19.119 16.415 -25.855 22.393 l -0.095 -0.095" stroke-linecap="round"/>
</g>
		<g transform="matrix(9.6165 0 0 9.6165 47.8272 888.6639)">
<path style="stroke: none; stroke-width: 1; stroke-dasharray: none; stroke-linecap: butt; stroke-dashoffset: 0; stroke-linejoin: miter; stroke-miterlimit: 4; is-custom-font: none; font-file-url: none; fill: rgb(255,153,0); fill-rule: nonzero; opacity: 1;" transform=" translate(-128.1943, -222.8326)" d="m 221.503 210.324 c -105.235 50.083 -170.545 8.18 -212.352 -17.271 c -2.587 -1.604 -6.984 0.375 -3.169 4.757 c 13.928 16.888 59.573 57.593 119.153 57.593 c 59.621 0 95.09 -32.532 99.527 -38.207 c 4.407 -5.627 1.294 -8.731 -3.16 -6.872 z m 29.555 -16.322 c -2.826 -3.68 -17.184 -4.366 -26.22 -3.256 c -9.05 1.078 -22.634 6.609 -21.453 9.93 c 0.606 1.244 1.843 0.686 8.06 0.127 c 6.234 -0.622 23.698 -2.826 27.337 1.931 c 3.656 4.79 -5.57 27.608 -7.255 31.288 c -1.628 3.68 0.622 4.629 3.68 2.178 c 3.016 -2.45 8.476 -8.795 12.14 -17.774 c 3.639 -9.028 5.858 -21.622 3.71 -24.424 z" stroke-linecap="round"/>
</g>
		<g transform="matrix(9.6165 0 0 9.6165 84.2454 -323.1906)">
<path style="stroke: none; stroke-width: 1; stroke-dasharray: none; stroke-linecap: butt; stroke-dashoffset: 0; stroke-linejoin: miter; stroke-miterlimit: 4; is-custom-font: none; font-file-url: none; fill: rgb(255,255,255); fill-rule: evenodd; opacity: 1;" transform=" translate(-131.9812, -96.815)" d="m 150.744 108.13 c 0 13.141 0.332 24.1 -6.31 35.77 c -5.361 9.489 -13.853 15.324 -23.341 15.324 c -12.952 0 -20.495 -9.868 -20.495 -24.432 c 0 -28.75 25.76 -33.968 50.146 -33.968 z m 34.015 82.216 c -2.23 1.992 -5.456 2.135 -7.97 0.806 c -11.196 -9.298 -13.189 -13.615 -19.356 -22.487 c -18.502 18.882 -31.596 24.527 -55.601 24.527 c -28.37 0 -50.478 -17.506 -50.478 -52.565 c 0 -27.373 14.85 -46.018 35.96 -55.126 c 18.313 -8.066 43.884 -9.489 63.43 -11.718 v -4.365 c 0 -8.018 0.616 -17.506 -4.08 -24.432 c -4.128 -6.215 -12.003 -8.777 -18.93 -8.777 c -12.856 0 -24.337 6.594 -27.136 20.257 c -0.57 3.037 -2.799 6.026 -5.835 6.168 l -32.735 -3.51 c -2.751 -0.618 -5.787 -2.847 -5.028 -7.07 c 7.543 -39.66 43.36 -51.616 75.43 -51.616 c 16.415 0 37.858 4.365 50.81 16.795 c 16.415 15.323 14.849 35.77 14.849 58.02 v 52.565 c 0 15.798 6.547 22.724 12.714 31.264 c 2.182 3.036 2.657 6.69 -0.095 8.966 c -6.879 5.74 -19.119 16.415 -25.855 22.393 l -0.095 -0.095" stroke-linecap="round"/>
</g>
</g>
</g>
<g transform="matrix(1.0831 0 0 1.0831 499.9922 408.0925)" id="337967">
<g style="" vector-effect="non-scaling-stroke">
		<g transform="matrix(1 0 0 1 -0.075 59.7722)" id="Layer_1">
<linearGradient id="SVGID_6" gradientUnits="userSpaceOnUse" gradientTransform="matrix(1 0 0 1 0.14 -373.5461)" x1="356.4805" y1="493.1343" x2="356.4805" y2="1080.8978">
<stop offset="0%" style="stop-color:rgb(247,232,48);stop-opacity: 1"/>
<stop offset="100%" style="stop-color:rgb(253,203,6);stop-opacity: 1"/>
</linearGradient>
<path style="stroke: rgb(252,209,9); stroke-width: 0.094; stroke-dasharray: none; stroke-linecap: butt; stroke-dashoffset: 0; stroke-linejoin: miter; stroke-miterlimit: 4; is-custom-font: none; font-file-url: none; fill: url(#SVGID_6); fill-rule: nonzero; opacity: 1;" transform=" translate(-356.62, -413.4722)" d="M 712.87 122.59 c -0.3 -1 -0.6 -2 -1 -3 c -236.9 0.1 -473.7 0 -710.5 0.1 c -0.6 0.7 -1 1.4 -1.1 2.3 c 0 183.7 0 367.3 -0.1 551 c 1.5 9.8 6.9 18.7 14.1 25.4 c 0.3 0.1 1 0.2 1.3 0.3 c 3.7 3.9 9 5.8 14 7.6 c 3.7 -0.2 7.3 1.4 11 1 h 294 c 2.8 -0.1 5.7 0.4 8.4 -0.7 c 0.1 -0.4 0.2 -1.1 0.3 -1.5 c 0.1 -0.5 0.2 -1.6 0.3 -2.2 c 6.3 -35.2 12.4 -70.5 19.1 -105.7 l 0.6 -4.5 c -27.2 -0.1 -54.5 0 -81.7 -0.1 c -6.6 -0.2 -13.4 0 -20 -0.8 c -11.3 -0.5 -22.7 -0.1 -34 -1.2 c -14 0 -27.9 -1.3 -41.9 -1.3 c -11 -1.1 -22.1 -0.7 -33.2 -1.2 c -7.2 -0.9 -14.6 -0.5 -21.9 -0.8 c -11.9 -1.3 -24 -0.4 -35.9 -1.7 c -12.6 0.1 -25.2 -1 -37.8 -1.3 c 0.1 -0.1 0.2 -0.5 0.2 -0.6 c 4.2 0.1 8.3 -0.2 12.5 -0.3 c 9.3 -1.2 18.7 -0.4 28 -1.7 c 9.7 0 19.3 -1.3 29 -1.3 c 8.6 -1.2 17.3 -0.5 25.9 -1.7 c 10.1 0 20 -1.3 30.1 -1.4 c 8.3 -1.1 16.7 -0.5 25 -1.6 c 9.7 0.1 19.3 -1.4 29 -1.3 c 9.5 -1.1 19.2 -0.8 28.7 -1.8 c -0.9 -3.7 -1.6 -7.4 -2.4 -11.1 c -0.7 -2.3 -3.5 -1.8 -5.3 -2.1 c -21.7 -3.1 -43.3 -6.2 -64.9 -9.2 c 1.4 -1.1 3.3 -0.6 4.9 -0.8 c 16.8 -1.3 33.5 -2.8 50.3 -4 c 3.8 -0.2 7.5 -0.9 11.3 -1 c -1.7 -5.2 -2.7 -10.9 -5 -15.7 c -35.9 -5.5 -71.8 -10.4 -107.6 -16.3 c 9.3 -1.5 18.7 -2.2 28 -3.2 l 0.8 -0.3 c 29.7 -3.1 59.5 -6.6 89.2 -9.5 c 37.7 -0.2 75.3 -0.1 113 0 c 1.2 -0.2 3.3 0.4 3.5 -1.3 c 3.1 -16.2 6.1 -32.4 9.2 -48.6 c 4.3 -22.5 11.1 -44.7 21.6 -65.2 c 16.5 -33 42.6 -61 74.4 -79.6 c 29.7 -17.4 64.1 -25.8 98.3 -27.4 c 11.1 -1 22.3 -0.7 33.3 0.7 c 7.2 1.7 14.6 3.7 20.3 8.6 c 4.7 3.8 7.5 9.4 9.6 15 c 4.6 13.3 7.2 27.1 9.4 41 c 0.1 5.6 1.1 11.9 -1.9 17 c -2.8 5 -8.4 7.4 -13.7 8.9 c -19.3 5 -39.5 0.3 -58.8 5 c -15.9 3.4 -30.7 12.2 -40.8 24.9 c -11.9 14.8 -18.2 33.2 -21.7 51.6 c -2.7 16.4 -6.1 32.8 -8.8 49.3 c 19 0.1 38.1 -0.1 57.2 0.1 c 7.6 0 15.4 4.2 18.5 11.4 c 4 9.2 3.1 19.6 1.8 29.3 c -1.6 10.9 -4.2 21.7 -9.1 31.7 c -4.1 8.5 -10.9 16.3 -20.2 19.3 c -4.8 1.9 -10 1.5 -15.1 1.5 c -16.8 0 -33.6 0.2 -50.4 0 c -2.7 12.3 -4.5 24.9 -6.9 37.4 c -4.4 24.3 -8.7 48.7 -13.1 73.1 c -0.1 0.8 -0.2 2.5 -0.2 3.4 c 7.9 0.4 15.8 0 23.7 0.2 c 58.6 0 117.3 -0.1 176 0 c 6.3 0.2 12.7 -1.3 18.2 -4.4 c 3.3 -1.2 5.3 -4.1 8.2 -5.7 c 2.8 -1.6 3.6 -4.9 6 -7 c 2.6 -4.6 5.3 -9.4 5.5 -14.8 c 0.3 0 1.1 -0.1 1.5 -0.2 C 712.77 490.59 713.07 306.59 712.87 122.59 z" stroke-linecap="round"/>
</g>
		<g transform="matrix(1 0 0 1 0.0024 -293.8306)" id="Layer_1">
<path style="stroke: rgb(248,243,181); stroke-width: 0.094; stroke-dasharray: none; stroke-linecap: butt; stroke-dashoffset: 0; stroke-linejoin: miter; stroke-miterlimit: 4; is-custom-font: none; font-file-url: none; fill: rgb(248,243,181); fill-rule: nonzero; opacity: 1;" transform=" translate(-356.6974, -59.8694)" d="M 93.47 1.59 c 8.5 -2.7 17.4 -0.9 26.1 -1.5 c 163.3 0.1 326.6 0 489.9 0 c 9.7 -0.4 18.2 5.1 27.2 7.9 c 7.2 2.9 14.7 5.2 21.9 8.3 c 1.5 0.6 2.6 1.9 3.7 3 c -0.1 13.2 0 26.5 0 39.8 c 0.1 3.5 -0.5 7.1 0.7 10.5 c 2.1 0.3 3.2 1.9 4.6 3.2 c 6.6 3 12.2 7.9 18.2 11.9 c 9 6.4 18.6 12 27.4 18.6 c 0.4 2.6 0.1 5.3 -0.7 7.7 c -0.9 2.8 -0.3 5.8 -0.6 8.6 c -236.9 0.1 -473.7 0 -710.5 0.1 c -0.5 -3.3 0.4 -6.6 -1 -9.7 c -0.2 -2.6 -1.1 -6 1.4 -7.8 c 10 -7 20.6 -13.3 30.4 -20.7 c 6.1 -3.9 12 -7.9 17.9 -11.9 c 1.2 -2 0.8 -4.5 0.8 -6.7 c 0 -14.5 0 -29 0.1 -43.5 c 3.4 -4.4 9.3 -4.9 14 -7.1 C 74.47 8.69 84.07 5.19 93.47 1.59 M 94.07 3.29 c -12.8 4.9 -25.7 9.6 -38.5 14.5 c -1.7 0.3 -2.6 1.8 -3.5 3.1 c 0.1 0.8 0.2 2.2 0.2 3 c -0.1 12 0 24 -0.1 36 c 0.1 3 -0.3 6 0.8 8.7 c -1.3 1.3 -2.7 2.6 -4.3 3.6 c -14.5 9.4 -28.5 19.6 -43 28.9 c -2.5 1.5 -5.3 3.5 -4.5 6.8 c -0.5 1.8 0.4 3.3 2.3 2.8 c 31.4 -0.2 62.7 0.2 94.1 -0.3 c 46.7 0 93.3 0.1 140 0 l 0.7 -0.3 c 2.1 0.5 4.2 0.3 6.4 0.3 c 84.6 0 169.2 0.1 253.9 0 c 26.6 0.1 53.3 0 80 0 c 44 0 88.1 0.4 132.1 0.2 c 1.3 -0.3 1.7 -1.2 1.2 -2.8 c -0.1 -1.6 0.5 -3.8 -1.2 -4.8 c -7 -3.3 -13 -8.4 -19.7 -12.4 c -2.4 -2 -5.5 -3.1 -7.3 -5.8 c -6.9 -3.9 -13.3 -8.7 -20.1 -13 c -1.3 -0.8 -2.3 -2.1 -3.4 -3.2 c 0.6 -2.1 0.8 -4.4 0.8 -6.6 c -0.1 -12.7 0 -25.4 -0.1 -38.1 c 0.3 -2 0.2 -4.3 -1.6 -5.6 c -12 -4.3 -23.9 -8.9 -35.8 -13.3 c -3.7 -1.8 -7.8 -2.8 -11.8 -3.4 h -511.1 C 98.37 1.69 96.27 2.79 94.07 3.29 L 94.07 3.29 z" stroke-linecap="round"/>
</g>
		<g transform="matrix(1 0 0 1 -0.125 -307.46)" id="Layer_1">
<path style="stroke: rgb(247,180,2); stroke-width: 0.094; stroke-dasharray: none; stroke-linecap: butt; stroke-dashoffset: 0; stroke-linejoin: miter; stroke-miterlimit: 4; is-custom-font: none; font-file-url: none; fill: rgb(247,180,2); fill-rule: nonzero; opacity: 1;" transform=" translate(-356.57, -46.24)" d="M 52.27 23.89 c 8.8 3.7 18.2 5.8 27.1 9.4 c 4.8 1.9 6.3 7.1 8.4 11.3 c -2.1 2.1 -4.6 3.8 -7.1 5.4 c -9.2 6.2 -18.6 12.2 -27.7 18.6 c -1.1 -2.7 -0.7 -5.7 -0.8 -8.7 C 52.27 47.89 52.17 35.89 52.27 23.89 z M 633.77 33.29 c 8.9 -3.5 18.2 -5.9 27.1 -9.4 c 0.1 12.7 0 25.4 0.1 38.1 c 0 2.2 -0.2 4.5 -0.8 6.6 c -7.8 -5.4 -15.7 -10.5 -23.5 -15.8 c -3.8 -2.8 -8 -4.9 -11.4 -8.3 C 627.37 40.29 628.97 35.19 633.77 33.29 L 633.77 33.29 z" stroke-linecap="round"/>
</g>
		<g transform="matrix(1 0 0 1 -0.108 -298.0063)" id="Layer_1">
<path style="stroke: rgb(189,167,39); stroke-width: 0.094; stroke-dasharray: none; stroke-linecap: butt; stroke-dashoffset: 0; stroke-linejoin: miter; stroke-miterlimit: 4; is-custom-font: none; font-file-url: none; fill: rgb(189,167,39); fill-rule: nonzero; opacity: 1;" transform=" translate(-356.5869, -55.6938)" d="M 204.87 37.39 c 11 -2.6 23.3 7.2 22.4 18.7 c 0.1 11.3 -11.8 20.5 -22.7 17.9 c -4.4 -1.5 -8.6 -3.8 -11.3 -7.7 c -3.5 -5.3 -4.3 -12.4 -1.5 -18.2 C 193.77 42.49 199.17 38.69 204.87 37.39 L 204.87 37.39 z M 490.17 43.69 c 4.6 -5.1 11.9 -8 18.7 -6.2 c 5.1 1.5 10.1 4.8 12.3 9.8 c 4.4 8.6 1 20.2 -7.6 24.7 c -7.6 4.2 -17.2 2.2 -23 -3.9 C 484.67 61.39 484.27 50.39 490.17 43.69 z" stroke-linecap="round"/>
</g>
		<g transform="matrix(1 0 0 1 -0.2323 -277.51)" id="Layer_1">
<path style="stroke: rgb(247,230,45); stroke-width: 0.094; stroke-dasharray: none; stroke-linecap: butt; stroke-dashoffset: 0; stroke-linejoin: miter; stroke-miterlimit: 4; is-custom-font: none; font-file-url: none; fill: rgb(247,230,45); fill-rule: nonzero; opacity: 1;" transform=" translate(-356.4627, -76.19)" d="M 80.67 49.99 c 2.5 -1.6 5 -3.3 7.1 -5.4 l 0.7 0.7 c 0.7 5.2 0.2 10.5 0.4 15.7 c -0.3 15.6 0.3 31.3 -0.4 46.9 c -29.1 0 -58.2 -0.2 -87.3 0 c -0.8 -3.3 2 -5.3 4.5 -6.8 c 14.5 -9.3 28.5 -19.5 43 -28.9 c 1.6 -1 3 -2.3 4.3 -3.6 C 62.07 62.19 71.47 56.19 80.67 49.99 z M 624.27 47.99 c 0 -1.3 0.3 -2.4 1 -3.5 c 3.4 3.4 7.6 5.5 11.4 8.3 c 7.8 5.3 15.7 10.4 23.5 15.8 c 1.1 1.1 2.1 2.4 3.4 3.2 c 6.8 4.3 13.2 9.1 20.1 13 c 1.8 2.7 4.9 3.8 7.3 5.8 c 6.7 4 12.7 9.1 19.7 12.4 c 1.7 1 1.1 3.2 1.2 4.8 c -29.1 0.1 -58.1 -0.1 -87.2 0.1 c -0.5 -4 -0.2 -8 -0.3 -11.9 C 624.37 79.99 624.17 63.99 624.27 47.99 L 624.27 47.99 z" stroke-linecap="round"/>
</g>
		<g transform="matrix(1 0 0 1 -0.139 -297.5113)" id="Layer_1">
<radialGradient id="SVGID_7" gradientUnits="userSpaceOnUse" gradientTransform="matrix(1 0 0 1 0.14 -373.5461)" cx="353.4156" cy="761.2123" r="478.08" fx="353.4156" fy="761.2123">
<stop offset="59.599999999999994%" style="stop-color:rgb(242,148,5);stop-opacity: 1"/>
<stop offset="73.6%" style="stop-color:rgb(247,208,30);stop-opacity: 1"/>
<stop offset="100%" style="stop-color:rgb(253,203,6);stop-opacity: 1"/>
</radialGradient>
<path style="stroke: rgb(252,209,9); stroke-width: 0.094; stroke-dasharray: none; stroke-linecap: butt; stroke-dashoffset: 0; stroke-linejoin: miter; stroke-miterlimit: 4; is-custom-font: none; font-file-url: none; fill: url(#SVGID_7); fill-rule: nonzero; opacity: 1;" transform=" translate(-356.556, -56.1887)" d="M 711.87 107.79 c -29.1 0.1 -58.1 -0.1 -87.2 0.1 c -0.5 -4 -0.2 -8 -0.3 -11.9 c 0 -16 -0.2 -32 -0.1 -48 c 0 -1.3 0.3 -2.4 1 -3.5 c 2.1 -4.2 3.7 -9.3 8.5 -11.2 c 8.9 -3.5 18.2 -5.9 27.1 -9.4 c 0.3 -2 0.2 -4.3 -1.6 -5.6 c -12 -4.3 -23.9 -8.9 -35.8 -13.3 c -3.7 -1.8 -7.8 -2.8 -11.8 -3.4 h -511.1 c -2.2 0.1 -4.3 1.2 -6.5 1.7 c -12.8 4.9 -25.7 9.6 -38.5 14.5 c -1.7 0.3 -2.6 1.8 -3.5 3.1 c 0.1 0.8 0.2 2.2 0.2 3 c 8.8 3.7 18.2 5.8 27.1 9.4 c 4.8 1.9 6.3 7.1 8.4 11.3 l 0.7 0.7 c 0.7 5.2 0.2 10.5 0.4 15.7 c -0.3 15.6 0.3 31.3 -0.4 46.9 c -29.1 0 -58.2 -0.2 -87.3 0 c -0.5 1.8 0.4 3.3 2.3 2.8 c 31.4 -0.2 62.7 0.2 94.1 -0.3 c 46.7 0 93.3 0.1 140 0 l 0.7 -0.3 c 2.1 0.5 4.2 0.3 6.4 0.3 c 84.6 0 169.2 0.1 253.9 0 c 26.6 0.1 53.3 0 80 0 c 44 0 88.1 0.4 132.1 0.2 C 711.97 110.29 712.37 109.39 711.87 107.79 L 711.87 107.79 z M 191.77 48.09 c 2 -5.6 7.4 -9.4 13.1 -10.7 c 11 -2.6 23.3 7.2 22.4 18.7 c 0.1 11.3 -11.8 20.5 -22.7 17.9 c -4.4 -1.5 -8.6 -3.8 -11.3 -7.7 C 189.77 60.99 188.97 53.89 191.77 48.09 L 191.77 48.09 z M 490.17 43.69 c 4.6 -5.1 11.9 -8 18.7 -6.2 c 5.1 1.5 10.1 4.8 12.3 9.8 c 4.4 8.6 1 20.2 -7.6 24.7 c -7.6 4.2 -17.2 2.2 -23 -3.9 C 484.67 61.39 484.27 50.39 490.17 43.69 z" stroke-linecap="round"/>
</g>
		<g transform="matrix(1 0 0 1 163.5153 -198.7084)" id="Layer_1">
<linearGradient id="SVGID_8" gradientUnits="userSpaceOnUse" gradientTransform="matrix(1 0 0 1 0.14 -373.5461)" x1="520.03" y1="514.347" x2="520.197" y2="542.18">
<stop offset="0%" style="stop-color:rgb(250,218,28);stop-opacity: 1"/>
<stop offset="100%" style="stop-color:rgb(253,203,6);stop-opacity: 1"/>
</linearGradient>
<path style="stroke: rgb(252,209,9); stroke-width: 0.094; stroke-dasharray: none; stroke-linecap: butt; stroke-dashoffset: 0; stroke-linejoin: miter; stroke-miterlimit: 4; is-custom-font: none; font-file-url: none; fill: url(#SVGID_8); fill-rule: nonzero; opacity: 1;" transform=" translate(-520.2104, -154.9916)" d="M 515.66 151.73 c 1.4 0.3 -7.29 -8.35 -5.59 -8.75 c 1.6 0.2 7.67 -4.51 15 -0.67 c 7.33 3.84 5.51 12.83 4.68 16.17 c -0.99 3.97 -3.52 6.5 -5.52 8.5 c -1.1 0.9 -3.57 2.3 -5.07 2.2 c 0.9 -4.9 -2 -5.7 -2.2 -10.7 L 515.66 151.73 z" stroke-linecap="round"/>
</g>
		<g transform="matrix(1 0 0 1 -163.9454 -200.0306)" id="Layer_1">
<linearGradient id="SVGID_9" gradientUnits="userSpaceOnUse" gradientTransform="matrix(-1 0 0 1 -618.3428 -373.5461)" x1="-811.1298" y1="513.0134" x2="-810.9628" y2="540.8463">
<stop offset="0%" style="stop-color:rgb(250,218,28);stop-opacity: 1"/>
<stop offset="100%" style="stop-color:rgb(253,203,6);stop-opacity: 1"/>
</linearGradient>
<path style="stroke: rgb(252,209,9); stroke-width: 0.094; stroke-dasharray: none; stroke-linecap: butt; stroke-dashoffset: 0; stroke-linejoin: miter; stroke-miterlimit: 4; is-custom-font: none; font-file-url: none; fill: url(#SVGID_9); fill-rule: nonzero; opacity: 1;" transform=" translate(-192.7496, -153.6694)" d="M 195.99 157.16 c -0.2 5 -3.1 5.8 -2.2 10.7 c -1.5 0.1 -3.97 -1.3 -5.07 -2.2 c -2 -2 -4.52 -4.53 -5.51 -8.5 c -0.83 -3.33 -2.65 -12.32 4.68 -16.17 s 13.4 0.87 15 0.67 c 1.7 0.4 -6.99 9.05 -5.59 8.75 L 195.99 157.16 L 195.99 157.16 z" stroke-linecap="round"/>
</g>
		<g transform="matrix(1 0 0 1 6.375 -83.2134)" id="Layer_1">
<path style="stroke: rgb(189,167,39); stroke-width: 0.094; stroke-dasharray: none; stroke-linecap: butt; stroke-dashoffset: 0; stroke-linejoin: miter; stroke-miterlimit: 4; is-custom-font: none; font-file-url: none; fill: rgb(189,167,39); fill-rule: nonzero; opacity: 1;" transform=" translate(-363.07, -270.4866)" d="M 502.57 215.79 c 1.5 -1.31 2.5 -1.31 4.5 -1.31 c -12 26 -26 52 -47.05 72.24 c -2.25 2.01 -4.63 3.87 -7.12 5.58 c -2.41 1.76 -4.77 3.42 -7.12 5.1 c -2.3 1.6 -4.59 3.2 -6.81 4.88 c -5.7 3.1 -10.7 7.4 -17 9.3 c -11.5 5.5 -23.9 9.2 -36.4 11.8 c -4.9 0.8 -9.9 2 -14.9 2.1 c -6.2 1.8 -12.8 0.5 -19.1 0.9 c -3.5 0.6 -6.6 -1.4 -10 -1 c -2.95 -0.42 -5.89 -0.92 -8.82 -1.5 c -2.97 -0.61 -5.92 -1.31 -8.84 -2.1 c -45.84 -14.3 -90.84 -49.3 -103.95 -96.64 c -0.59 -3.19 -0.89 -6.42 -0.89 -9.67 c 1.4 2.8 2.85 5.58 4.35 8.33 c 18.65 40.67 55.65 72.67 99.36 82.32 c 3.55 1.62 7.39 1.05 10.79 2.45 c 3.1 0 6.1 -0.1 9.1 0.9 c 10.3 0.2 20.6 0.1 30.9 0.1 c 1.4 0.1 2.7 -0.6 4.1 -0.9 c 17.17 -0.58 33.99 -5.26 49.65 -12.36 c 3.13 -1.42 6.22 -2.94 9.25 -4.54 c 2.65 -1.4 5.25 -2.91 7.77 -4.54 c 2.48 -1.6 4.88 -3.3 7.22 -5.1 c 18.51 -14.66 34.51 -33.66 45.38 -55.51 C 499 222.71 500.9 219.07 502.57 215.79 z" stroke-linecap="round"/>
</g>
		<g transform="matrix(1 0 0 1 49.675 39.8402)" id="Layer_1">
<path style="stroke: rgb(13,105,179); stroke-width: 0.094; stroke-dasharray: none; stroke-linecap: butt; stroke-dashoffset: 0; stroke-linejoin: miter; stroke-miterlimit: 4; is-custom-font: none; font-file-url: none; fill: rgb(13,105,179); fill-rule: nonzero; opacity: 1;" transform=" translate(-406.37, -393.5402)" d="M 486.27 304.69 c 29.7 -17.4 64.1 -25.8 98.3 -27.4 c 11.1 -1 22.3 -0.7 33.3 0.7 c 7.2 1.7 14.6 3.7 20.3 8.6 c -2.9 0.2 -5.7 -1.1 -8.6 -1.5 c -8.2 -1.6 -16.7 -1 -25 -1.2 c -24.1 0 -48.4 1.9 -71.7 8.5 c -12.2 3.7 -24.4 8 -35.5 14.4 c -19.2 10.6 -36.5 24.6 -50.5 41.4 c -25 28.7 -39.7 65.1 -46.8 102.2 c -3.4 19.9 -7.3 39.7 -10.4 59.7 c -5 0.5 -10.1 0.2 -15.1 0.2 c -22 -0.1 -44 -0.2 -66 -0.4 c -4.7 0.2 -9.3 -0.9 -14 -0.6 c -40 0.2 -80 -0.1 -120 -0.1 l 0.8 -0.3 c 29.7 -3.1 59.5 -6.6 89.2 -9.5 c 37.7 -0.2 75.3 -0.1 113 0 c 1.2 -0.2 3.3 0.4 3.5 -1.3 c 3.1 -16.2 6.1 -32.4 9.2 -48.6 c 4.3 -22.5 11.1 -44.7 21.6 -65.2 C 428.37 351.29 454.47 323.29 486.27 304.69 z" stroke-linecap="round"/>
</g>
		<g transform="matrix(1 0 0 1 0.4446 141.5622)" id="Layer_1">
<path style="stroke: rgb(16,123,212); stroke-width: 0.094; stroke-dasharray: none; stroke-linecap: butt; stroke-dashoffset: 0; stroke-linejoin: miter; stroke-miterlimit: 4; is-custom-font: none; font-file-url: none; fill: rgb(16,123,212); fill-rule: nonzero; opacity: 1;" transform=" translate(-357.1396, -495.2622)" d="M 532.87 292.39 c 23.3 -6.6 47.6 -8.5 71.7 -8.5 c 8.3 0.2 16.8 -0.4 25 1.2 c 2.9 0.4 5.7 1.7 8.6 1.5 c 4.7 3.8 7.5 9.4 9.6 15 c 4.6 13.3 7.2 27.1 9.4 41 c 0.1 5.6 1.1 11.9 -1.9 17 c -2.8 5 -8.4 7.4 -13.7 8.9 c -19.3 5 -39.5 0.3 -58.8 5 c -15.9 3.4 -30.7 12.2 -40.8 24.9 c -11.9 14.8 -18.2 33.2 -21.7 51.6 c -2.7 16.4 -6.1 32.8 -8.8 49.3 c -1.2 3.7 -1.9 7.7 -2.6 11.6 c 18.9 0.3 37.8 0 56.7 0.2 c 7.2 -0.2 14.4 0.2 21.6 -0.3 c 4 9.2 3.1 19.6 1.8 29.3 c -1.6 10.9 -4.2 21.7 -9.1 31.7 c -4.1 8.5 -10.9 16.3 -20.2 19.3 c -4.8 1.9 -10 1.5 -15.1 1.5 c -16.8 0 -33.6 0.2 -50.4 0 c -2.7 12.3 -4.5 24.9 -6.9 37.4 c -4.4 24.3 -8.7 48.7 -13.1 73.1 c -0.1 0.8 -0.2 2.5 -0.2 3.4 v 0.1 c -43.7 0 -87.3 0.1 -131 0 c 0.1 -0.4 0.2 -1.1 0.3 -1.5 c 0.1 -0.5 0.2 -1.6 0.3 -2.2 c 0.1 0.8 0.2 2.3 0.3 3 c 2.7 0.3 7.6 1.7 8.3 -2.2 c 6.8 -36.8 13.1 -73.8 20.1 -110.6 c -2.7 -0.6 -5.5 -0.6 -8.3 -0.1 c -0.4 1.4 -0.8 2.8 -1.3 4.2 l 0.6 -4.5 c -27.2 -0.1 -54.5 0 -81.7 -0.1 c -6.6 -0.2 -13.4 0 -20 -0.8 c -11.3 -0.5 -22.7 -0.1 -34 -1.2 c -14 0 -27.9 -1.3 -41.9 -1.3 c -11 -1.1 -22.1 -0.7 -33.2 -1.2 c -7.2 -0.9 -14.6 -0.5 -21.9 -0.8 c -11.9 -1.3 -24 -0.4 -35.9 -1.7 c -12.6 0.1 -25.2 -1 -37.8 -1.3 c 0.1 -0.1 0.2 -0.5 0.2 -0.6 c 4.2 0.1 8.3 -0.2 12.5 -0.3 c 9.3 -1.2 18.7 -0.4 28 -1.7 c 9.7 0 19.3 -1.3 29 -1.3 c 8.6 -1.2 17.3 -0.5 25.9 -1.7 c 10.1 0 20 -1.3 30.1 -1.4 c 8.3 -1.1 16.7 -0.5 25 -1.6 c 9.7 0.1 19.3 -1.4 29 -1.3 c 9.5 -1.1 19.2 -0.8 28.7 -1.8 c -0.9 -3.7 -1.6 -7.4 -2.4 -11.1 c -0.7 -2.3 -3.5 -1.8 -5.3 -2.1 c -21.7 -3.1 -43.3 -6.2 -64.9 -9.2 c 1.4 -1.1 3.3 -0.6 4.9 -0.8 c 16.8 -1.3 33.5 -2.8 50.3 -4 c 3.8 -0.2 7.5 -0.9 11.3 -1 c -1.7 -5.2 -2.7 -10.9 -5 -15.7 c -35.9 -5.5 -71.8 -10.4 -107.6 -16.3 c 9.3 -1.5 18.7 -2.2 28 -3.2 c 40 0 80 0.3 120 0.1 c 4.7 -0.3 9.3 0.8 14 0.6 c 22 0.2 44 0.3 66 0.4 c 5 0 10.1 0.3 15.1 -0.2 c 3.1 -20 7 -39.8 10.4 -59.7 c 7.1 -37.1 21.8 -73.5 46.8 -102.2 c 14 -16.8 31.3 -30.8 50.5 -41.4 C 508.47 300.39 520.67 296.09 532.87 292.39 z" stroke-linecap="round"/>
</g>
		<g transform="matrix(1 0 0 1 108.675 249.135)" id="Layer_1">
<path style="stroke: rgb(13,105,179); stroke-width: 0.094; stroke-dasharray: none; stroke-linecap: butt; stroke-dashoffset: 0; stroke-linejoin: miter; stroke-miterlimit: 4; is-custom-font: none; font-file-url: none; fill: rgb(13,105,179); fill-rule: nonzero; opacity: 1;" transform=" translate(-465.37, -602.835)" d="M 511.47 499.29 c 19 0.1 38.1 -0.1 57.2 0.1 c 7.6 0 15.4 4.2 18.5 11.4 c -7.2 0.5 -14.4 0.1 -21.6 0.3 c -18.9 -0.2 -37.8 0.1 -56.7 -0.2 C 509.57 506.99 510.27 502.99 511.47 499.29 L 511.47 499.29 z M 363.97 592.99 c 2.8 -0.5 5.6 -0.5 8.3 0.1 c -7 36.8 -13.3 73.8 -20.1 110.6 c -0.7 3.9 -5.6 2.5 -8.3 2.2 c -0.1 -0.7 -0.2 -2.2 -0.3 -3 c 6.3 -35.2 12.4 -70.5 19.1 -105.7 C 363.17 595.79 363.57 594.39 363.97 592.99 L 363.97 592.99 z" stroke-linecap="round"/>
</g>
		<g transform="matrix(1 0 0 1 -0.0446 -136.3973)" id="Layer_1">
<path style="stroke: rgb(255,255,255); stroke-width: 0.094; stroke-dasharray: none; stroke-linecap: butt; stroke-dashoffset: 0; stroke-linejoin: miter; stroke-miterlimit: 4; is-custom-font: none; font-file-url: none; fill: rgb(255,255,255); fill-rule: nonzero; opacity: 1;" transform=" translate(-356.6504, -217.3026)" d="M 520.22 154.53 c -0.8 -1.5 -0.9 -3.3 -0.9 -5 l -0.8 0.1 c -1.2 -4.4 -4.9 -8.6 -9.7 -8.8 c -3.6 -0.3 -8.1 -0.2 -10.2 3.2 c -4 5.4 -2.1 12.3 -2.3 18.4 c 0 0.4 0.1 1.1 0.1 1.5 c 0 4.1 -0.5 8.1 -1.2 12.1 c -0.6 1.2 -0.9 2.5 -0.9 3.9 c -1.7 9.4 -5.1 18.7 -9.7 27.2 c -0.9 1.2 -1.6 2.5 -1.9 3.9 c -3 5.2 -6.6 10 -10.3 14.8 c -0.6 0.5 -1.1 1.1 -1.6 1.7 c -2.6 3.2 -5.4 5.9 -8.3 8.7 c -0.7 0.4 -1.2 0.9 -1.8 1.3 c -3.4 3.3 -7.2 6.4 -11.3 8.9 c -0.5 0.3 -1 0.7 -1.6 1.1 c -25.6 16.9 -56.7 23.9 -87 24.2 c -25.7 0.8 -51.6 -4.7 -74.8 -15.8 c -0.4 -0.2 -1.4 -0.6 -1.8 -0.8 c -3.9 -2.1 -7.9 -3.9 -11.5 -6.5 c -0.8 -0.4 -1.6 -0.9 -2.5 -1.3 c -3.7 -2.2 -7.2 -4.6 -10.5 -7.4 c -1.1 -1 -2.3 -1.8 -3.5 -2.7 c -3.6 -2.9 -7.3 -6 -10.4 -9.5 c -0.8 -0.9 -1.6 -1.7 -2.4 -2.5 c -10.9 -11.3 -19.4 -25.1 -23.9 -40.1 c -4.3 -11.9 -3.7 -24.9 -4.2 -37.4 c -3.6 -5.5 -11.2 -8.6 -17.2 -5.2 c -2.5 1.8 -2.8 5.1 -4.7 7.4 c -3.1 33 11 65.9 33.5 89.7 c 0 0.8 0.4 1.3 1.1 1.6 c 4 3.7 7.9 7.5 11.9 11.1 c 0.7 0.7 1.5 1.4 2.4 2 c 4 3.3 8.3 6.3 12.5 9.4 c 0.8 0.6 1.6 1.1 2.5 1.6 c 5.5 3.2 10.7 7 16.6 9.2 c 0.4 0.3 1.1 0.8 1.5 1 c 19 9.1 39.5 15.3 60.5 17.3 c 2.3 0 4.6 0.2 6.9 0.7 c 10 0.6 20 0.3 30 0.1 c 30.9 -2.7 62.8 -10.2 88.6 -28.4 l 0.3 0.4 c 0.8 -0.7 1.5 -1.3 2.3 -1.9 c 4.1 -3 8.1 -6.2 12.1 -9.5 c 0.9 -0.7 1.9 -1.5 2.8 -2.4 c 4.4 -4.8 9.5 -9.2 13.2 -14.7 l 0.6 0.3 c 0.3 -0.5 0.8 -1.5 1.1 -2 c 3.4 -4.6 6.5 -9.4 9.5 -14.2 c 0.2 -0.3 0.7 -0.8 0.9 -1.1 l -0.4 -0.4 c 0.3 -0.4 1 -1.2 1.3 -1.6 c 5.5 -11.2 10.4 -22.9 12.1 -35.3 c 0.7 -0.3 1.1 -0.9 1.1 -1.6 c 0.1 -4 1.5 -7.8 1.1 -11.8 C 520.32 164.53 520.42 159.53 520.22 154.53 L 520.22 154.53 z" stroke-linecap="round"/>
</g>
		<g transform="matrix(1 0 0 1 1.375 -130.205)" id="Layer_1" clip-path="url(#CLIPPATH_10)">
<clipPath id="CLIPPATH_10">
	<path transform="matrix(1 0 0 1 -1.4196 -6.1923) translate(-356.6504, -217.3026)" id="SVGID_6_" d="M 520.22 154.53 c -0.8 -1.5 -0.9 -3.3 -0.9 -5 l -0.8 0.1 c -1.2 -4.4 -4.9 -8.6 -9.7 -8.8 c -3.6 -0.3 -8.1 -0.2 -10.2 3.2 c -4 5.4 -2.1 12.3 -2.3 18.4 c 0 0.4 0.1 1.1 0.1 1.5 c 0 4.1 -0.5 8.1 -1.2 12.1 c -0.6 1.2 -0.9 2.5 -0.9 3.9 c -1.7 9.4 -5.1 18.7 -9.7 27.2 c -0.9 1.2 -1.6 2.5 -1.9 3.9 c -3 5.2 -6.6 10 -10.3 14.8 c -0.6 0.5 -1.1 1.1 -1.6 1.7 c -2.6 3.2 -5.4 5.9 -8.3 8.7 c -0.7 0.4 -1.2 0.9 -1.8 1.3 c -3.4 3.3 -7.2 6.4 -11.3 8.9 c -0.5 0.3 -1 0.7 -1.6 1.1 c -25.6 16.9 -56.7 23.9 -87 24.2 c -25.7 0.8 -51.6 -4.7 -74.8 -15.8 c -0.4 -0.2 -1.4 -0.6 -1.8 -0.8 c -3.9 -2.1 -7.9 -3.9 -11.5 -6.5 c -0.8 -0.4 -1.6 -0.9 -2.5 -1.3 c -3.7 -2.2 -7.2 -4.6 -10.5 -7.4 c -1.1 -1 -2.3 -1.8 -3.5 -2.7 c -3.6 -2.9 -7.3 -6 -10.4 -9.5 c -0.8 -0.9 -1.6 -1.7 -2.4 -2.5 c -10.9 -11.3 -19.4 -25.1 -23.9 -40.1 c -4.3 -11.9 -3.7 -24.9 -4.2 -37.4 c -3.6 -5.5 -11.2 -8.6 -17.2 -5.2 c -2.5 1.8 -2.8 5.1 -4.7 7.4 c -3.1 33 11 65.9 33.5 89.7 c 0 0.8 0.4 1.3 1.1 1.6 c 4 3.7 7.9 7.5 11.9 11.1 c 0.7 0.7 1.5 1.4 2.4 2 c 4 3.3 8.3 6.3 12.5 9.4 c 0.8 0.6 1.6 1.1 2.5 1.6 c 5.5 3.2 10.7 7 16.6 9.2 c 0.4 0.3 1.1 0.8 1.5 1 c 19 9.1 39.5 15.3 60.5 17.3 c 2.3 0 4.6 0.2 6.9 0.7 c 10 0.6 20 0.3 30 0.1 c 30.9 -2.7 62.8 -10.2 88.6 -28.4 l 0.3 0.4 c 0.8 -0.7 1.5 -1.3 2.3 -1.9 c 4.1 -3 8.1 -6.2 12.1 -9.5 c 0.9 -0.7 1.9 -1.5 2.8 -2.4 c 4.4 -4.8 9.5 -9.2 13.2 -14.7 l 0.6 0.3 c 0.3 -0.5 0.8 -1.5 1.1 -2 c 3.4 -4.6 6.5 -9.4 9.5 -14.2 c 0.2 -0.3 0.7 -0.8 0.9 -1.1 l -0.4 -0.4 c 0.3 -0.4 1 -1.2 1.3 -1.6 c 5.5 -11.2 10.4 -22.9 12.1 -35.3 c 0.7 -0.3 1.1 -0.9 1.1 -1.6 c 0.1 -4 1.5 -7.8 1.1 -11.8 C 520.32 164.53 520.42 159.53 520.22 154.53 L 520.22 154.53 z" stroke-linecap="round"/>
</clipPath>
<path style="stroke: rgb(209,209,209); stroke-width: 2; stroke-dasharray: none; stroke-linecap: butt; stroke-dashoffset: 0; stroke-linejoin: miter; stroke-miterlimit: 4; is-custom-font: none; font-file-url: none; fill: none; fill-rule: nonzero; opacity: 1;" transform=" translate(-358.07, -223.495)" d="M 185.74 151.16 c 8.11 2.54 26.73 -3.85 32 2 M 190.4 175.82 c 7.77 -2.7 24.43 -9.1 31.33 -5.33 M 198.4 200.49 c 3.76 1.22 11.16 -5.38 14.83 -7.31 c 5.47 -2.88 11.08 -5.08 17.17 -6.02 M 210.4 226.49 c 3.87 -5.5 8.51 -10.08 14.1 -13.98 c 5.55 -3.87 20.72 -14.23 27.23 -10.68 M 221.74 245.16 c 4.4 -3.49 6.19 -9.68 10.8 -13.35 c 5.58 -4.44 14.14 -5.24 19.86 -7.98 M 240.57 258.99 c 1.32 -9.67 11.13 -21.33 20.5 -20.5 M 255.07 272.49 c 4.95 -0.5 9.14 -11.58 12.49 -15.33 c 5.02 -5.62 10.21 -7.36 16.85 -9.34 M 283.74 284.49 c -0.32 -7 6.91 -27.05 15.33 -26 M 305.07 291.16 c -0.35 -8.27 3.92 -33.14 14 -34 M 327.07 304.49 c -1.91 -11.56 -1.79 -28.29 7.33 -36.67 M 354.4 307.16 c -1.02 -9.64 -10.59 -29.12 0 -36.67 M 383.74 300.49 c -4.57 -5.3 -7.23 -26.21 -5.33 -32 M 411.74 295.82 c -3.53 -6.4 -7.9 -12.42 -9.23 -19.85 c -0.8 -4.44 0.6 -10.77 -0.1 -14.15 M 435.07 285.82 c -7.65 -5 -9.77 -23.39 -7.33 -31.33 M 457.74 275.82 c -5.44 -11.67 -11.24 -20.72 -11.33 -34 M 479.74 254.49 c -8.45 -5.69 -19.24 -16.02 -18 -27.33 M 503.07 236.49 c -12.84 -2.85 -28.26 -14.34 -36 -24.67 M 513.74 214.49 c -9.27 -1.99 -39.88 -13.93 -38 -26 M 523.74 191.16 c -12.91 -4.73 -31.69 -8.99 -42 -18 M 530.4 169.82 c -8.13 0.7 -19.78 -3.24 -28.05 -4.67 c -9.18 -1.58 -17.69 -4.68 -26.62 -6.67 M 522.4 149.16 c -15.68 0.94 -30.4 -4.43 -44.67 -9.33" stroke-linecap="round"/>
</g>
</g>
</g>
</svg>